<mxfile host="app.diagrams.net" modified="2022-06-27T09:47:41.150Z" agent="5.0 (Windows NT 10.0; Win64; x64) AppleWebKit/537.36 (KHTML, like Gecko) Chrome/102.0.5005.108 Whale/3.15.136.18 Safari/537.36" etag="ZfmktUuqAeURvhYcryTs" version="20.0.3" type="github">
  <diagram id="PGZrG2X6-PLYh8cuhLj_" name="Page-1">
    <mxGraphModel dx="3881" dy="2589" grid="1" gridSize="10" guides="1" tooltips="1" connect="1" arrows="1" fold="1" page="1" pageScale="1" pageWidth="827" pageHeight="1169" math="0" shadow="0">
      <root>
        <mxCell id="0" />
        <mxCell id="1" parent="0" />
        <mxCell id="_PiH-gFInOYQ3cw0sFF--63" value="" style="rounded=1;whiteSpace=wrap;html=1;" vertex="1" parent="1">
          <mxGeometry x="-650" y="-1020" width="2420" height="1010" as="geometry" />
        </mxCell>
        <mxCell id="_PiH-gFInOYQ3cw0sFF--34" value="" style="whiteSpace=wrap;html=1;" vertex="1" parent="1">
          <mxGeometry x="480" y="-920" width="1240" height="840" as="geometry" />
        </mxCell>
        <mxCell id="_PiH-gFInOYQ3cw0sFF--33" value="" style="whiteSpace=wrap;html=1;" vertex="1" parent="1">
          <mxGeometry x="-600" y="-920" width="900" height="840" as="geometry" />
        </mxCell>
        <mxCell id="_PiH-gFInOYQ3cw0sFF--46" value="" style="rounded=1;whiteSpace=wrap;html=1;" vertex="1" parent="1">
          <mxGeometry x="-122" y="-786" width="230" height="130" as="geometry" />
        </mxCell>
        <mxCell id="_PiH-gFInOYQ3cw0sFF--37" value="" style="rounded=1;whiteSpace=wrap;html=1;" vertex="1" parent="1">
          <mxGeometry x="-525" y="-343" width="290" height="150" as="geometry" />
        </mxCell>
        <mxCell id="_PiH-gFInOYQ3cw0sFF--5" value="rms-dev-elk" style="shape=image;verticalLabelPosition=bottom;labelBackgroundColor=default;verticalAlign=top;aspect=fixed;imageAspect=0;image=data:image/png,iVBORw0KGgoAAAANSUhEUgAAAD8AAAA/CAMAAABggeDtAAAAAXNSR0IArs4c6QAAAARnQU1BAACxjwv8YQUAAAGnUExURQAAAAAAAAAAAAAAAAAAAAAAACQkJCAgIBwcHCQkJCIiIiAgIB4eHhwcHBsbGxoaGhgYGCEhIR8fHx0dHRwcHCIiIh8fHx4eHiIiIiEhISAgICQkJCQkJCIiIiYmJiAgICUlJSQkJB8fHx4eHiMjIyAgIB8fHyEhISAgICAgICMjIyIiIh4eHiEhISEhISAgIB8fHyIiIiIiIiEhIR4eHiEhISAgIB8fHyEhISQkJCMjIyAgICAgIB8fHyIiIh8fHx0dHSAgICIiIiAgICIiIiMjIx8fHyEhISEhISEhISEhISAgICEhISEhISEhISEhISAgICAgICEhISEhISIiIiIiIiEhISMjIyIiIiAgICIiIiIiIiEhIR8fHyAgICMjIyIiIiEhISEhISEhISIiIiEhISIiIiIiIiIiIiEhISEhISIiIiEhISEhISEhISEhISIiIiIiIiIiIiMjIyIiIiIiIiEhISIiIiIiIiIiIiIiIiEhISIiIiEhISEhISEhISIiIiEhISIiIiIiIiIiIiEhISIiIiEhISIiIiMjIyQkJCUlJSYmJhhwhsgAAACIdFJOUwABAgMEBgcICQ4PEBESExQVFyEjJCUpKi0uMDEyNDY3Nzk6OztAQkZHSElLTU1OUFJSU1VWVldaXV1eX2BiYmNoaGlwcXN6enyEhZGSk5SVlpebnJ6foqKsra2usLS4wMPHyMnJysrLzM7S1dfe3+Hh4uPl5ujp6erx8vX19vf4+Pn5+vv9/f7NRDh5AAAACXBIWXMAABcRAAAXEQHKJvM/AAABrUlEQVRYR+WXV1MCUQxGUeyC2Av2ir2gIBbE3hWl2Bv2hgW7iKJiYdcf7U68jIanzTqjOJ6nfA/n5W6Sycp+n+RWgwRaNFHM73jjJPC2k8h8A/cqAW5F9envTo6bKYzOXiF/IlJOIrzkgP/qj7FSNHnYN8tZLZbCH/fTO01Go9FkVEOi+11PdwL3t/2Q6H4PD23jH4JE90unLAJWSzUkuh8W+PSQ6D4mxPxRVoom14l8qypeSSFOc4j8843VNQqOvQc0v37oDQp4f/g8bg8Ft/cF+Ys1lVUUKvrOkD/CStFk4/f/6/0nwk9QZwpkZSVBovttl8cCLlcPJLrf+7F/uGFIdF+74xBYdXRAovuxaSmAAhLdx4SYT+7/HNz/S40NWgp1Axdo/h6vaVy5n/D+4YkE7R/nwtw8hZnlG+ST93fQ+42HsVosBX+u/+Qx0UAEJLpfNm232Wx2Wy0kuv/d/dH97AMGIdH91Ga9TqfTN2VAovuYEPO/f78o2GUiDkU5vl8utze3KKzvez/nt52nny+cn18P/D/Vnx5J4GRGyXxVcb4EitI/JulfI5O9A0uyDmTPbf4hAAAAAElFTkSuQmCC;" vertex="1" parent="1">
          <mxGeometry x="-416.5" y="-292" width="63" height="63" as="geometry" />
        </mxCell>
        <mxCell id="_PiH-gFInOYQ3cw0sFF--7" value="rms-dev-kafka" style="shape=image;verticalLabelPosition=bottom;labelBackgroundColor=default;verticalAlign=top;aspect=fixed;imageAspect=0;image=data:image/png,iVBORw0KGgoAAAANSUhEUgAAAD8AAAA/CAMAAABggeDtAAAAAXNSR0IArs4c6QAAAARnQU1BAACxjwv8YQUAAAGnUExURQAAAAAAAAAAAAAAAAAAAAAAACQkJCAgIBwcHCQkJCIiIiAgIB4eHhwcHBsbGxoaGhgYGCEhIR8fHx0dHRwcHCIiIh8fHx4eHiIiIiEhISAgICQkJCQkJCIiIiYmJiAgICUlJSQkJB8fHx4eHiMjIyAgIB8fHyEhISAgICAgICMjIyIiIh4eHiEhISEhISAgIB8fHyIiIiIiIiEhIR4eHiEhISAgIB8fHyEhISQkJCMjIyAgICAgIB8fHyIiIh8fHx0dHSAgICIiIiAgICIiIiMjIx8fHyEhISEhISEhISEhISAgICEhISEhISEhISEhISAgICAgICEhISEhISIiIiIiIiEhISMjIyIiIiAgICIiIiIiIiEhIR8fHyAgICMjIyIiIiEhISEhISEhISIiIiEhISIiIiIiIiIiIiEhISEhISIiIiEhISEhISEhISEhISIiIiIiIiIiIiMjIyIiIiIiIiEhISIiIiIiIiIiIiIiIiEhISIiIiEhISEhISEhISIiIiEhISIiIiIiIiIiIiEhISIiIiEhISIiIiMjIyQkJCUlJSYmJhhwhsgAAACIdFJOUwABAgMEBgcICQ4PEBESExQVFyEjJCUpKi0uMDEyNDY3Nzk6OztAQkZHSElLTU1OUFJSU1VWVldaXV1eX2BiYmNoaGlwcXN6enyEhZGSk5SVlpebnJ6foqKsra2usLS4wMPHyMnJysrLzM7S1dfe3+Hh4uPl5ujp6erx8vX19vf4+Pn5+vv9/f7NRDh5AAAACXBIWXMAABcRAAAXEQHKJvM/AAABrUlEQVRYR+WXV1MCUQxGUeyC2Av2ir2gIBbE3hWl2Bv2hgW7iKJiYdcf7U68jIanzTqjOJ6nfA/n5W6Sycp+n+RWgwRaNFHM73jjJPC2k8h8A/cqAW5F9envTo6bKYzOXiF/IlJOIrzkgP/qj7FSNHnYN8tZLZbCH/fTO01Go9FkVEOi+11PdwL3t/2Q6H4PD23jH4JE90unLAJWSzUkuh8W+PSQ6D4mxPxRVoom14l8qypeSSFOc4j8843VNQqOvQc0v37oDQp4f/g8bg8Ft/cF+Ys1lVUUKvrOkD/CStFk4/f/6/0nwk9QZwpkZSVBovttl8cCLlcPJLrf+7F/uGFIdF+74xBYdXRAovuxaSmAAhLdx4SYT+7/HNz/S40NWgp1Axdo/h6vaVy5n/D+4YkE7R/nwtw8hZnlG+ST93fQ+42HsVosBX+u/+Qx0UAEJLpfNm232Wx2Wy0kuv/d/dH97AMGIdH91Ga9TqfTN2VAovuYEPO/f78o2GUiDkU5vl8utze3KKzvez/nt52nny+cn18P/D/Vnx5J4GRGyXxVcb4EitI/JulfI5O9A0uyDmTPbf4hAAAAAElFTkSuQmCC;" vertex="1" parent="1">
          <mxGeometry x="-506.5" y="-292" width="63" height="63" as="geometry" />
        </mxCell>
        <mxCell id="_PiH-gFInOYQ3cw0sFF--8" value="nks-rms-dev-w-3l2" style="shape=image;verticalLabelPosition=bottom;labelBackgroundColor=default;verticalAlign=top;aspect=fixed;imageAspect=0;image=data:image/png,iVBORw0KGgoAAAANSUhEUgAAAD8AAAA/CAMAAABggeDtAAAAAXNSR0IArs4c6QAAAARnQU1BAACxjwv8YQUAAAGnUExURQAAAAAAAAAAAAAAAAAAAAAAACQkJCAgIBwcHCQkJCIiIiAgIB4eHhwcHBsbGxoaGhgYGCEhIR8fHx0dHRwcHCIiIh8fHx4eHiIiIiEhISAgICQkJCQkJCIiIiYmJiAgICUlJSQkJB8fHx4eHiMjIyAgIB8fHyEhISAgICAgICMjIyIiIh4eHiEhISEhISAgIB8fHyIiIiIiIiEhIR4eHiEhISAgIB8fHyEhISQkJCMjIyAgICAgIB8fHyIiIh8fHx0dHSAgICIiIiAgICIiIiMjIx8fHyEhISEhISEhISEhISAgICEhISEhISEhISEhISAgICAgICEhISEhISIiIiIiIiEhISMjIyIiIiAgICIiIiIiIiEhIR8fHyAgICMjIyIiIiEhISEhISEhISIiIiEhISIiIiIiIiIiIiEhISEhISIiIiEhISEhISEhISEhISIiIiIiIiIiIiMjIyIiIiIiIiEhISIiIiIiIiIiIiIiIiEhISIiIiEhISEhISEhISIiIiEhISIiIiIiIiIiIiEhISIiIiEhISIiIiMjIyQkJCUlJSYmJhhwhsgAAACIdFJOUwABAgMEBgcICQ4PEBESExQVFyEjJCUpKi0uMDEyNDY3Nzk6OztAQkZHSElLTU1OUFJSU1VWVldaXV1eX2BiYmNoaGlwcXN6enyEhZGSk5SVlpebnJ6foqKsra2usLS4wMPHyMnJysrLzM7S1dfe3+Hh4uPl5ujp6erx8vX19vf4+Pn5+vv9/f7NRDh5AAAACXBIWXMAABcRAAAXEQHKJvM/AAABrUlEQVRYR+WXV1MCUQxGUeyC2Av2ir2gIBbE3hWl2Bv2hgW7iKJiYdcf7U68jIanzTqjOJ6nfA/n5W6Sycp+n+RWgwRaNFHM73jjJPC2k8h8A/cqAW5F9envTo6bKYzOXiF/IlJOIrzkgP/qj7FSNHnYN8tZLZbCH/fTO01Go9FkVEOi+11PdwL3t/2Q6H4PD23jH4JE90unLAJWSzUkuh8W+PSQ6D4mxPxRVoom14l8qypeSSFOc4j8843VNQqOvQc0v37oDQp4f/g8bg8Ft/cF+Ys1lVUUKvrOkD/CStFk4/f/6/0nwk9QZwpkZSVBovttl8cCLlcPJLrf+7F/uGFIdF+74xBYdXRAovuxaSmAAhLdx4SYT+7/HNz/S40NWgp1Axdo/h6vaVy5n/D+4YkE7R/nwtw8hZnlG+ST93fQ+42HsVosBX+u/+Qx0UAEJLpfNm232Wx2Wy0kuv/d/dH97AMGIdH91Ga9TqfTN2VAovuYEPO/f78o2GUiDkU5vl8utze3KKzvez/nt52nny+cn18P/D/Vnx5J4GRGyXxVcb4EitI/JulfI5O9A0uyDmTPbf4hAAAAAElFTkSuQmCC;" vertex="1" parent="1">
          <mxGeometry x="142" y="-290" width="63" height="63" as="geometry" />
        </mxCell>
        <mxCell id="_PiH-gFInOYQ3cw0sFF--39" value="" style="rounded=1;whiteSpace=wrap;html=1;" vertex="1" parent="1">
          <mxGeometry x="-510" y="-786" width="230" height="130" as="geometry" />
        </mxCell>
        <mxCell id="_PiH-gFInOYQ3cw0sFF--14" value="gitlab" style="shape=image;verticalLabelPosition=bottom;labelBackgroundColor=default;verticalAlign=top;aspect=fixed;imageAspect=0;image=data:image/png,iVBORw0KGgoAAAANSUhEUgAAAD8AAAA/CAMAAABggeDtAAAAAXNSR0IArs4c6QAAAARnQU1BAACxjwv8YQUAAAGnUExURQAAAAAAAAAAAAAAAAAAAAAAACQkJCAgIBwcHCQkJCIiIiAgIB4eHhwcHBsbGxoaGhgYGCEhIR8fHx0dHRwcHCIiIh8fHx4eHiIiIiEhISAgICQkJCQkJCIiIiYmJiAgICUlJSQkJB8fHx4eHiMjIyAgIB8fHyEhISAgICAgICMjIyIiIh4eHiEhISEhISAgIB8fHyIiIiIiIiEhIR4eHiEhISAgIB8fHyEhISQkJCMjIyAgICAgIB8fHyIiIh8fHx0dHSAgICIiIiAgICIiIiMjIx8fHyEhISEhISEhISEhISAgICEhISEhISEhISEhISAgICAgICEhISEhISIiIiIiIiEhISMjIyIiIiAgICIiIiIiIiEhIR8fHyAgICMjIyIiIiEhISEhISEhISIiIiEhISIiIiIiIiIiIiEhISEhISIiIiEhISEhISEhISEhISIiIiIiIiIiIiMjIyIiIiIiIiEhISIiIiIiIiIiIiIiIiEhISIiIiEhISEhISEhISIiIiEhISIiIiIiIiIiIiEhISIiIiEhISIiIiMjIyQkJCUlJSYmJhhwhsgAAACIdFJOUwABAgMEBgcICQ4PEBESExQVFyEjJCUpKi0uMDEyNDY3Nzk6OztAQkZHSElLTU1OUFJSU1VWVldaXV1eX2BiYmNoaGlwcXN6enyEhZGSk5SVlpebnJ6foqKsra2usLS4wMPHyMnJysrLzM7S1dfe3+Hh4uPl5ujp6erx8vX19vf4+Pn5+vv9/f7NRDh5AAAACXBIWXMAABcRAAAXEQHKJvM/AAABrUlEQVRYR+WXV1MCUQxGUeyC2Av2ir2gIBbE3hWl2Bv2hgW7iKJiYdcf7U68jIanzTqjOJ6nfA/n5W6Sycp+n+RWgwRaNFHM73jjJPC2k8h8A/cqAW5F9envTo6bKYzOXiF/IlJOIrzkgP/qj7FSNHnYN8tZLZbCH/fTO01Go9FkVEOi+11PdwL3t/2Q6H4PD23jH4JE90unLAJWSzUkuh8W+PSQ6D4mxPxRVoom14l8qypeSSFOc4j8843VNQqOvQc0v37oDQp4f/g8bg8Ft/cF+Ys1lVUUKvrOkD/CStFk4/f/6/0nwk9QZwpkZSVBovttl8cCLlcPJLrf+7F/uGFIdF+74xBYdXRAovuxaSmAAhLdx4SYT+7/HNz/S40NWgp1Axdo/h6vaVy5n/D+4YkE7R/nwtw8hZnlG+ST93fQ+42HsVosBX+u/+Qx0UAEJLpfNm232Wx2Wy0kuv/d/dH97AMGIdH91Ga9TqfTN2VAovuYEPO/f78o2GUiDkU5vl8utze3KKzvez/nt52nny+cn18P/D/Vnx5J4GRGyXxVcb4EitI/JulfI5O9A0uyDmTPbf4hAAAAAElFTkSuQmCC;" vertex="1" parent="1">
          <mxGeometry x="-411.5" y="-746" width="63" height="63" as="geometry" />
        </mxCell>
        <mxCell id="_PiH-gFInOYQ3cw0sFF--40" value="VPC- rms - dev" style="text;strokeColor=none;fillColor=none;html=1;fontSize=24;fontStyle=1;verticalAlign=middle;align=center;" vertex="1" parent="1">
          <mxGeometry x="-600" y="-960" width="200" height="40" as="geometry" />
        </mxCell>
        <mxCell id="_PiH-gFInOYQ3cw0sFF--41" value="&lt;font style=&quot;font-size: 14px;&quot;&gt;Subnet - rms-dev-resource&lt;/font&gt;" style="text;strokeColor=none;fillColor=none;html=1;fontSize=24;fontStyle=1;verticalAlign=middle;align=center;" vertex="1" parent="1">
          <mxGeometry x="-525" y="-343" width="180" height="40" as="geometry" />
        </mxCell>
        <mxCell id="_PiH-gFInOYQ3cw0sFF--43" value="conlab-dev-mariadb" style="shape=image;verticalLabelPosition=bottom;labelBackgroundColor=default;verticalAlign=top;aspect=fixed;imageAspect=0;image=data:image/png,iVBORw0KGgoAAAANSUhEUgAAAD8AAAA/CAMAAABggeDtAAAAAXNSR0IArs4c6QAAAARnQU1BAACxjwv8YQUAAAGnUExURQAAAAAAAAAAAAAAAAAAAAAAACQkJCAgIBwcHCQkJCIiIiAgIB4eHhwcHBsbGxoaGhgYGCEhIR8fHx0dHRwcHCIiIh8fHx4eHiIiIiEhISAgICQkJCQkJCIiIiYmJiAgICUlJSQkJB8fHx4eHiMjIyAgIB8fHyEhISAgICAgICMjIyIiIh4eHiEhISEhISAgIB8fHyIiIiIiIiEhIR4eHiEhISAgIB8fHyEhISQkJCMjIyAgICAgIB8fHyIiIh8fHx0dHSAgICIiIiAgICIiIiMjIx8fHyEhISEhISEhISEhISAgICEhISEhISEhISEhISAgICAgICEhISEhISIiIiIiIiEhISMjIyIiIiAgICIiIiIiIiEhIR8fHyAgICMjIyIiIiEhISEhISEhISIiIiEhISIiIiIiIiIiIiEhISEhISIiIiEhISEhISEhISEhISIiIiIiIiIiIiMjIyIiIiIiIiEhISIiIiIiIiIiIiIiIiEhISIiIiEhISEhISEhISIiIiEhISIiIiIiIiIiIiEhISIiIiEhISIiIiMjIyQkJCUlJSYmJhhwhsgAAACIdFJOUwABAgMEBgcICQ4PEBESExQVFyEjJCUpKi0uMDEyNDY3Nzk6OztAQkZHSElLTU1OUFJSU1VWVldaXV1eX2BiYmNoaGlwcXN6enyEhZGSk5SVlpebnJ6foqKsra2usLS4wMPHyMnJysrLzM7S1dfe3+Hh4uPl5ujp6erx8vX19vf4+Pn5+vv9/f7NRDh5AAAACXBIWXMAABcRAAAXEQHKJvM/AAABrUlEQVRYR+WXV1MCUQxGUeyC2Av2ir2gIBbE3hWl2Bv2hgW7iKJiYdcf7U68jIanzTqjOJ6nfA/n5W6Sycp+n+RWgwRaNFHM73jjJPC2k8h8A/cqAW5F9envTo6bKYzOXiF/IlJOIrzkgP/qj7FSNHnYN8tZLZbCH/fTO01Go9FkVEOi+11PdwL3t/2Q6H4PD23jH4JE90unLAJWSzUkuh8W+PSQ6D4mxPxRVoom14l8qypeSSFOc4j8843VNQqOvQc0v37oDQp4f/g8bg8Ft/cF+Ys1lVUUKvrOkD/CStFk4/f/6/0nwk9QZwpkZSVBovttl8cCLlcPJLrf+7F/uGFIdF+74xBYdXRAovuxaSmAAhLdx4SYT+7/HNz/S40NWgp1Axdo/h6vaVy5n/D+4YkE7R/nwtw8hZnlG+ST93fQ+42HsVosBX+u/+Qx0UAEJLpfNm232Wx2Wy0kuv/d/dH97AMGIdH91Ga9TqfTN2VAovuYEPO/f78o2GUiDkU5vl8utze3KKzvez/nt52nny+cn18P/D/Vnx5J4GRGyXxVcb4EitI/JulfI5O9A0uyDmTPbf4hAAAAAElFTkSuQmCC;" vertex="1" parent="1">
          <mxGeometry x="-325" y="-292" width="63" height="63" as="geometry" />
        </mxCell>
        <mxCell id="_PiH-gFInOYQ3cw0sFF--44" value="&lt;font style=&quot;font-size: 14px;&quot;&gt;Subnet - rms-dev-bastion&lt;/font&gt;" style="text;strokeColor=none;fillColor=none;html=1;fontSize=24;fontStyle=1;verticalAlign=middle;align=center;" vertex="1" parent="1">
          <mxGeometry x="-508.5" y="-786" width="180" height="40" as="geometry" />
        </mxCell>
        <mxCell id="_PiH-gFInOYQ3cw0sFF--47" value="&lt;font style=&quot;font-size: 14px;&quot;&gt;Subnet - rms-migration&lt;/font&gt;" style="text;strokeColor=none;fillColor=none;html=1;fontSize=24;fontStyle=1;verticalAlign=middle;align=center;" vertex="1" parent="1">
          <mxGeometry x="-122" y="-786" width="180" height="40" as="geometry" />
        </mxCell>
        <mxCell id="_PiH-gFInOYQ3cw0sFF--48" value="" style="rounded=1;whiteSpace=wrap;html=1;" vertex="1" parent="1">
          <mxGeometry x="-180" y="-340" width="405" height="150" as="geometry" />
        </mxCell>
        <mxCell id="_PiH-gFInOYQ3cw0sFF--3" value="nks-rms-dev-w-4qz" style="shape=image;verticalLabelPosition=bottom;labelBackgroundColor=default;verticalAlign=top;aspect=fixed;imageAspect=0;image=data:image/png,iVBORw0KGgoAAAANSUhEUgAAAD8AAAA/CAMAAABggeDtAAAAAXNSR0IArs4c6QAAAARnQU1BAACxjwv8YQUAAAGnUExURQAAAAAAAAAAAAAAAAAAAAAAACQkJCAgIBwcHCQkJCIiIiAgIB4eHhwcHBsbGxoaGhgYGCEhIR8fHx0dHRwcHCIiIh8fHx4eHiIiIiEhISAgICQkJCQkJCIiIiYmJiAgICUlJSQkJB8fHx4eHiMjIyAgIB8fHyEhISAgICAgICMjIyIiIh4eHiEhISEhISAgIB8fHyIiIiIiIiEhIR4eHiEhISAgIB8fHyEhISQkJCMjIyAgICAgIB8fHyIiIh8fHx0dHSAgICIiIiAgICIiIiMjIx8fHyEhISEhISEhISEhISAgICEhISEhISEhISEhISAgICAgICEhISEhISIiIiIiIiEhISMjIyIiIiAgICIiIiIiIiEhIR8fHyAgICMjIyIiIiEhISEhISEhISIiIiEhISIiIiIiIiIiIiEhISEhISIiIiEhISEhISEhISEhISIiIiIiIiIiIiMjIyIiIiIiIiEhISIiIiIiIiIiIiIiIiEhISIiIiEhISEhISEhISIiIiEhISIiIiIiIiIiIiEhISIiIiEhISIiIiMjIyQkJCUlJSYmJhhwhsgAAACIdFJOUwABAgMEBgcICQ4PEBESExQVFyEjJCUpKi0uMDEyNDY3Nzk6OztAQkZHSElLTU1OUFJSU1VWVldaXV1eX2BiYmNoaGlwcXN6enyEhZGSk5SVlpebnJ6foqKsra2usLS4wMPHyMnJysrLzM7S1dfe3+Hh4uPl5ujp6erx8vX19vf4+Pn5+vv9/f7NRDh5AAAACXBIWXMAABcRAAAXEQHKJvM/AAABrUlEQVRYR+WXV1MCUQxGUeyC2Av2ir2gIBbE3hWl2Bv2hgW7iKJiYdcf7U68jIanzTqjOJ6nfA/n5W6Sycp+n+RWgwRaNFHM73jjJPC2k8h8A/cqAW5F9envTo6bKYzOXiF/IlJOIrzkgP/qj7FSNHnYN8tZLZbCH/fTO01Go9FkVEOi+11PdwL3t/2Q6H4PD23jH4JE90unLAJWSzUkuh8W+PSQ6D4mxPxRVoom14l8qypeSSFOc4j8843VNQqOvQc0v37oDQp4f/g8bg8Ft/cF+Ys1lVUUKvrOkD/CStFk4/f/6/0nwk9QZwpkZSVBovttl8cCLlcPJLrf+7F/uGFIdF+74xBYdXRAovuxaSmAAhLdx4SYT+7/HNz/S40NWgp1Axdo/h6vaVy5n/D+4YkE7R/nwtw8hZnlG+ST93fQ+42HsVosBX+u/+Qx0UAEJLpfNm232Wx2Wy0kuv/d/dH97AMGIdH91Ga9TqfTN2VAovuYEPO/f78o2GUiDkU5vl8utze3KKzvez/nt52nny+cn18P/D/Vnx5J4GRGyXxVcb4EitI/JulfI5O9A0uyDmTPbf4hAAAAAElFTkSuQmCC;" vertex="1" parent="1">
          <mxGeometry x="90" y="-289" width="63" height="63" as="geometry" />
        </mxCell>
        <mxCell id="_PiH-gFInOYQ3cw0sFF--49" value="nks-rms-dev-w-4r0" style="shape=image;verticalLabelPosition=bottom;labelBackgroundColor=default;verticalAlign=top;aspect=fixed;imageAspect=0;image=data:image/png,iVBORw0KGgoAAAANSUhEUgAAAD8AAAA/CAMAAABggeDtAAAAAXNSR0IArs4c6QAAAARnQU1BAACxjwv8YQUAAAGnUExURQAAAAAAAAAAAAAAAAAAAAAAACQkJCAgIBwcHCQkJCIiIiAgIB4eHhwcHBsbGxoaGhgYGCEhIR8fHx0dHRwcHCIiIh8fHx4eHiIiIiEhISAgICQkJCQkJCIiIiYmJiAgICUlJSQkJB8fHx4eHiMjIyAgIB8fHyEhISAgICAgICMjIyIiIh4eHiEhISEhISAgIB8fHyIiIiIiIiEhIR4eHiEhISAgIB8fHyEhISQkJCMjIyAgICAgIB8fHyIiIh8fHx0dHSAgICIiIiAgICIiIiMjIx8fHyEhISEhISEhISEhISAgICEhISEhISEhISEhISAgICAgICEhISEhISIiIiIiIiEhISMjIyIiIiAgICIiIiIiIiEhIR8fHyAgICMjIyIiIiEhISEhISEhISIiIiEhISIiIiIiIiIiIiEhISEhISIiIiEhISEhISEhISEhISIiIiIiIiIiIiMjIyIiIiIiIiEhISIiIiIiIiIiIiIiIiEhISIiIiEhISEhISEhISIiIiEhISIiIiIiIiIiIiEhISIiIiEhISIiIiMjIyQkJCUlJSYmJhhwhsgAAACIdFJOUwABAgMEBgcICQ4PEBESExQVFyEjJCUpKi0uMDEyNDY3Nzk6OztAQkZHSElLTU1OUFJSU1VWVldaXV1eX2BiYmNoaGlwcXN6enyEhZGSk5SVlpebnJ6foqKsra2usLS4wMPHyMnJysrLzM7S1dfe3+Hh4uPl5ujp6erx8vX19vf4+Pn5+vv9/f7NRDh5AAAACXBIWXMAABcRAAAXEQHKJvM/AAABrUlEQVRYR+WXV1MCUQxGUeyC2Av2ir2gIBbE3hWl2Bv2hgW7iKJiYdcf7U68jIanzTqjOJ6nfA/n5W6Sycp+n+RWgwRaNFHM73jjJPC2k8h8A/cqAW5F9envTo6bKYzOXiF/IlJOIrzkgP/qj7FSNHnYN8tZLZbCH/fTO01Go9FkVEOi+11PdwL3t/2Q6H4PD23jH4JE90unLAJWSzUkuh8W+PSQ6D4mxPxRVoom14l8qypeSSFOc4j8843VNQqOvQc0v37oDQp4f/g8bg8Ft/cF+Ys1lVUUKvrOkD/CStFk4/f/6/0nwk9QZwpkZSVBovttl8cCLlcPJLrf+7F/uGFIdF+74xBYdXRAovuxaSmAAhLdx4SYT+7/HNz/S40NWgp1Axdo/h6vaVy5n/D+4YkE7R/nwtw8hZnlG+ST93fQ+42HsVosBX+u/+Qx0UAEJLpfNm232Wx2Wy0kuv/d/dH97AMGIdH91Ga9TqfTN2VAovuYEPO/f78o2GUiDkU5vl8utze3KKzvez/nt52nny+cn18P/D/Vnx5J4GRGyXxVcb4EitI/JulfI5O9A0uyDmTPbf4hAAAAAElFTkSuQmCC;" vertex="1" parent="1">
          <mxGeometry x="-132.25" y="-289" width="63" height="63" as="geometry" />
        </mxCell>
        <mxCell id="_PiH-gFInOYQ3cw0sFF--50" value="nks-rms-dev-w-3l2" style="shape=image;verticalLabelPosition=bottom;labelBackgroundColor=default;verticalAlign=top;aspect=fixed;imageAspect=0;image=data:image/png,iVBORw0KGgoAAAANSUhEUgAAAD8AAAA/CAMAAABggeDtAAAAAXNSR0IArs4c6QAAAARnQU1BAACxjwv8YQUAAAGnUExURQAAAAAAAAAAAAAAAAAAAAAAACQkJCAgIBwcHCQkJCIiIiAgIB4eHhwcHBsbGxoaGhgYGCEhIR8fHx0dHRwcHCIiIh8fHx4eHiIiIiEhISAgICQkJCQkJCIiIiYmJiAgICUlJSQkJB8fHx4eHiMjIyAgIB8fHyEhISAgICAgICMjIyIiIh4eHiEhISEhISAgIB8fHyIiIiIiIiEhIR4eHiEhISAgIB8fHyEhISQkJCMjIyAgICAgIB8fHyIiIh8fHx0dHSAgICIiIiAgICIiIiMjIx8fHyEhISEhISEhISEhISAgICEhISEhISEhISEhISAgICAgICEhISEhISIiIiIiIiEhISMjIyIiIiAgICIiIiIiIiEhIR8fHyAgICMjIyIiIiEhISEhISEhISIiIiEhISIiIiIiIiIiIiEhISEhISIiIiEhISEhISEhISEhISIiIiIiIiIiIiMjIyIiIiIiIiEhISIiIiIiIiIiIiIiIiEhISIiIiEhISEhISEhISIiIiEhISIiIiIiIiIiIiEhISIiIiEhISIiIiMjIyQkJCUlJSYmJhhwhsgAAACIdFJOUwABAgMEBgcICQ4PEBESExQVFyEjJCUpKi0uMDEyNDY3Nzk6OztAQkZHSElLTU1OUFJSU1VWVldaXV1eX2BiYmNoaGlwcXN6enyEhZGSk5SVlpebnJ6foqKsra2usLS4wMPHyMnJysrLzM7S1dfe3+Hh4uPl5ujp6erx8vX19vf4+Pn5+vv9/f7NRDh5AAAACXBIWXMAABcRAAAXEQHKJvM/AAABrUlEQVRYR+WXV1MCUQxGUeyC2Av2ir2gIBbE3hWl2Bv2hgW7iKJiYdcf7U68jIanzTqjOJ6nfA/n5W6Sycp+n+RWgwRaNFHM73jjJPC2k8h8A/cqAW5F9envTo6bKYzOXiF/IlJOIrzkgP/qj7FSNHnYN8tZLZbCH/fTO01Go9FkVEOi+11PdwL3t/2Q6H4PD23jH4JE90unLAJWSzUkuh8W+PSQ6D4mxPxRVoom14l8qypeSSFOc4j8843VNQqOvQc0v37oDQp4f/g8bg8Ft/cF+Ys1lVUUKvrOkD/CStFk4/f/6/0nwk9QZwpkZSVBovttl8cCLlcPJLrf+7F/uGFIdF+74xBYdXRAovuxaSmAAhLdx4SYT+7/HNz/S40NWgp1Axdo/h6vaVy5n/D+4YkE7R/nwtw8hZnlG+ST93fQ+42HsVosBX+u/+Qx0UAEJLpfNm232Wx2Wy0kuv/d/dH97AMGIdH91Ga9TqfTN2VAovuYEPO/f78o2GUiDkU5vl8utze3KKzvez/nt52nny+cn18P/D/Vnx5J4GRGyXxVcb4EitI/JulfI5O9A0uyDmTPbf4hAAAAAElFTkSuQmCC;" vertex="1" parent="1">
          <mxGeometry x="-20" y="-289" width="63" height="63" as="geometry" />
        </mxCell>
        <mxCell id="_PiH-gFInOYQ3cw0sFF--53" value="&lt;font style=&quot;font-size: 14px;&quot;&gt;Subnet - rms-dev-k8s-sub&lt;/font&gt;" style="text;strokeColor=none;fillColor=none;html=1;fontSize=24;fontStyle=1;verticalAlign=middle;align=center;" vertex="1" parent="1">
          <mxGeometry x="-180" y="-340" width="180" height="40" as="geometry" />
        </mxCell>
        <mxCell id="_PiH-gFInOYQ3cw0sFF--4" value="rms-migration-main" style="shape=image;verticalLabelPosition=bottom;labelBackgroundColor=default;verticalAlign=top;aspect=fixed;imageAspect=0;image=data:image/png,iVBORw0KGgoAAAANSUhEUgAAAD8AAAA/CAMAAABggeDtAAAAAXNSR0IArs4c6QAAAARnQU1BAACxjwv8YQUAAAGnUExURQAAAAAAAAAAAAAAAAAAAAAAACQkJCAgIBwcHCQkJCIiIiAgIB4eHhwcHBsbGxoaGhgYGCEhIR8fHx0dHRwcHCIiIh8fHx4eHiIiIiEhISAgICQkJCQkJCIiIiYmJiAgICUlJSQkJB8fHx4eHiMjIyAgIB8fHyEhISAgICAgICMjIyIiIh4eHiEhISEhISAgIB8fHyIiIiIiIiEhIR4eHiEhISAgIB8fHyEhISQkJCMjIyAgICAgIB8fHyIiIh8fHx0dHSAgICIiIiAgICIiIiMjIx8fHyEhISEhISEhISEhISAgICEhISEhISEhISEhISAgICAgICEhISEhISIiIiIiIiEhISMjIyIiIiAgICIiIiIiIiEhIR8fHyAgICMjIyIiIiEhISEhISEhISIiIiEhISIiIiIiIiIiIiEhISEhISIiIiEhISEhISEhISEhISIiIiIiIiIiIiMjIyIiIiIiIiEhISIiIiIiIiIiIiIiIiEhISIiIiEhISEhISEhISIiIiEhISIiIiIiIiIiIiEhISIiIiEhISIiIiMjIyQkJCUlJSYmJhhwhsgAAACIdFJOUwABAgMEBgcICQ4PEBESExQVFyEjJCUpKi0uMDEyNDY3Nzk6OztAQkZHSElLTU1OUFJSU1VWVldaXV1eX2BiYmNoaGlwcXN6enyEhZGSk5SVlpebnJ6foqKsra2usLS4wMPHyMnJysrLzM7S1dfe3+Hh4uPl5ujp6erx8vX19vf4+Pn5+vv9/f7NRDh5AAAACXBIWXMAABcRAAAXEQHKJvM/AAABrUlEQVRYR+WXV1MCUQxGUeyC2Av2ir2gIBbE3hWl2Bv2hgW7iKJiYdcf7U68jIanzTqjOJ6nfA/n5W6Sycp+n+RWgwRaNFHM73jjJPC2k8h8A/cqAW5F9envTo6bKYzOXiF/IlJOIrzkgP/qj7FSNHnYN8tZLZbCH/fTO01Go9FkVEOi+11PdwL3t/2Q6H4PD23jH4JE90unLAJWSzUkuh8W+PSQ6D4mxPxRVoom14l8qypeSSFOc4j8843VNQqOvQc0v37oDQp4f/g8bg8Ft/cF+Ys1lVUUKvrOkD/CStFk4/f/6/0nwk9QZwpkZSVBovttl8cCLlcPJLrf+7F/uGFIdF+74xBYdXRAovuxaSmAAhLdx4SYT+7/HNz/S40NWgp1Axdo/h6vaVy5n/D+4YkE7R/nwtw8hZnlG+ST93fQ+42HsVosBX+u/+Qx0UAEJLpfNm232Wx2Wy0kuv/d/dH97AMGIdH91Ga9TqfTN2VAovuYEPO/f78o2GUiDkU5vl8utze3KKzvez/nt52nny+cn18P/D/Vnx5J4GRGyXxVcb4EitI/JulfI5O9A0uyDmTPbf4hAAAAAElFTkSuQmCC;" vertex="1" parent="1">
          <mxGeometry x="-38.5" y="-752.5" width="63" height="63" as="geometry" />
        </mxCell>
        <mxCell id="_PiH-gFInOYQ3cw0sFF--56" value="VPC- rms" style="text;strokeColor=none;fillColor=none;html=1;fontSize=24;fontStyle=1;verticalAlign=middle;align=center;" vertex="1" parent="1">
          <mxGeometry x="480" y="-960" width="140" height="40" as="geometry" />
        </mxCell>
        <mxCell id="_PiH-gFInOYQ3cw0sFF--57" value="" style="rounded=1;whiteSpace=wrap;html=1;" vertex="1" parent="1">
          <mxGeometry x="763.5" y="-789.5" width="200" height="150" as="geometry" />
        </mxCell>
        <mxCell id="_PiH-gFInOYQ3cw0sFF--58" value="&lt;font style=&quot;font-size: 14px;&quot;&gt;Subnet - rms-bastion&lt;/font&gt;" style="text;strokeColor=none;fillColor=none;html=1;fontSize=24;fontStyle=1;verticalAlign=middle;align=center;" vertex="1" parent="1">
          <mxGeometry x="763.5" y="-789.5" width="180" height="40" as="geometry" />
        </mxCell>
        <mxCell id="_PiH-gFInOYQ3cw0sFF--23" value="rms-bastion" style="shape=image;verticalLabelPosition=bottom;labelBackgroundColor=default;verticalAlign=top;aspect=fixed;imageAspect=0;image=data:image/png,iVBORw0KGgoAAAANSUhEUgAAAD8AAAA/CAMAAABggeDtAAAAAXNSR0IArs4c6QAAAARnQU1BAACxjwv8YQUAAAGnUExURQAAAAAAAAAAAAAAAAAAAAAAACQkJCAgIBwcHCQkJCIiIiAgIB4eHhwcHBsbGxoaGhgYGCEhIR8fHx0dHRwcHCIiIh8fHx4eHiIiIiEhISAgICQkJCQkJCIiIiYmJiAgICUlJSQkJB8fHx4eHiMjIyAgIB8fHyEhISAgICAgICMjIyIiIh4eHiEhISEhISAgIB8fHyIiIiIiIiEhIR4eHiEhISAgIB8fHyEhISQkJCMjIyAgICAgIB8fHyIiIh8fHx0dHSAgICIiIiAgICIiIiMjIx8fHyEhISEhISEhISEhISAgICEhISEhISEhISEhISAgICAgICEhISEhISIiIiIiIiEhISMjIyIiIiAgICIiIiIiIiEhIR8fHyAgICMjIyIiIiEhISEhISEhISIiIiEhISIiIiIiIiIiIiEhISEhISIiIiEhISEhISEhISEhISIiIiIiIiIiIiMjIyIiIiIiIiEhISIiIiIiIiIiIiIiIiEhISIiIiEhISEhISEhISIiIiEhISIiIiIiIiIiIiEhISIiIiEhISIiIiMjIyQkJCUlJSYmJhhwhsgAAACIdFJOUwABAgMEBgcICQ4PEBESExQVFyEjJCUpKi0uMDEyNDY3Nzk6OztAQkZHSElLTU1OUFJSU1VWVldaXV1eX2BiYmNoaGlwcXN6enyEhZGSk5SVlpebnJ6foqKsra2usLS4wMPHyMnJysrLzM7S1dfe3+Hh4uPl5ujp6erx8vX19vf4+Pn5+vv9/f7NRDh5AAAACXBIWXMAABcRAAAXEQHKJvM/AAABrUlEQVRYR+WXV1MCUQxGUeyC2Av2ir2gIBbE3hWl2Bv2hgW7iKJiYdcf7U68jIanzTqjOJ6nfA/n5W6Sycp+n+RWgwRaNFHM73jjJPC2k8h8A/cqAW5F9envTo6bKYzOXiF/IlJOIrzkgP/qj7FSNHnYN8tZLZbCH/fTO01Go9FkVEOi+11PdwL3t/2Q6H4PD23jH4JE90unLAJWSzUkuh8W+PSQ6D4mxPxRVoom14l8qypeSSFOc4j8843VNQqOvQc0v37oDQp4f/g8bg8Ft/cF+Ys1lVUUKvrOkD/CStFk4/f/6/0nwk9QZwpkZSVBovttl8cCLlcPJLrf+7F/uGFIdF+74xBYdXRAovuxaSmAAhLdx4SYT+7/HNz/S40NWgp1Axdo/h6vaVy5n/D+4YkE7R/nwtw8hZnlG+ST93fQ+42HsVosBX+u/+Qx0UAEJLpfNm232Wx2Wy0kuv/d/dH97AMGIdH91Ga9TqfTN2VAovuYEPO/f78o2GUiDkU5vl8utze3KKzvez/nt52nny+cn18P/D/Vnx5J4GRGyXxVcb4EitI/JulfI5O9A0uyDmTPbf4hAAAAAElFTkSuQmCC;" vertex="1" parent="1">
          <mxGeometry x="813.5" y="-739.5" width="63" height="63" as="geometry" />
        </mxCell>
        <mxCell id="_PiH-gFInOYQ3cw0sFF--59" value="" style="rounded=1;whiteSpace=wrap;html=1;" vertex="1" parent="1">
          <mxGeometry x="1175.5" y="-796" width="200" height="150" as="geometry" />
        </mxCell>
        <mxCell id="_PiH-gFInOYQ3cw0sFF--60" value="&lt;font style=&quot;font-size: 14px;&quot;&gt;Subnet - rms-public&lt;/font&gt;" style="text;strokeColor=none;fillColor=none;html=1;fontSize=24;fontStyle=1;verticalAlign=middle;align=center;" vertex="1" parent="1">
          <mxGeometry x="1175.5" y="-796" width="180" height="40" as="geometry" />
        </mxCell>
        <mxCell id="_PiH-gFInOYQ3cw0sFF--11" value="rms-enginx-proxy" style="shape=image;verticalLabelPosition=bottom;labelBackgroundColor=default;verticalAlign=top;aspect=fixed;imageAspect=0;image=data:image/png,iVBORw0KGgoAAAANSUhEUgAAAD8AAAA/CAMAAABggeDtAAAAAXNSR0IArs4c6QAAAARnQU1BAACxjwv8YQUAAAGnUExURQAAAAAAAAAAAAAAAAAAAAAAACQkJCAgIBwcHCQkJCIiIiAgIB4eHhwcHBsbGxoaGhgYGCEhIR8fHx0dHRwcHCIiIh8fHx4eHiIiIiEhISAgICQkJCQkJCIiIiYmJiAgICUlJSQkJB8fHx4eHiMjIyAgIB8fHyEhISAgICAgICMjIyIiIh4eHiEhISEhISAgIB8fHyIiIiIiIiEhIR4eHiEhISAgIB8fHyEhISQkJCMjIyAgICAgIB8fHyIiIh8fHx0dHSAgICIiIiAgICIiIiMjIx8fHyEhISEhISEhISEhISAgICEhISEhISEhISEhISAgICAgICEhISEhISIiIiIiIiEhISMjIyIiIiAgICIiIiIiIiEhIR8fHyAgICMjIyIiIiEhISEhISEhISIiIiEhISIiIiIiIiIiIiEhISEhISIiIiEhISEhISEhISEhISIiIiIiIiIiIiMjIyIiIiIiIiEhISIiIiIiIiIiIiIiIiEhISIiIiEhISEhISEhISIiIiEhISIiIiIiIiIiIiEhISIiIiEhISIiIiMjIyQkJCUlJSYmJhhwhsgAAACIdFJOUwABAgMEBgcICQ4PEBESExQVFyEjJCUpKi0uMDEyNDY3Nzk6OztAQkZHSElLTU1OUFJSU1VWVldaXV1eX2BiYmNoaGlwcXN6enyEhZGSk5SVlpebnJ6foqKsra2usLS4wMPHyMnJysrLzM7S1dfe3+Hh4uPl5ujp6erx8vX19vf4+Pn5+vv9/f7NRDh5AAAACXBIWXMAABcRAAAXEQHKJvM/AAABrUlEQVRYR+WXV1MCUQxGUeyC2Av2ir2gIBbE3hWl2Bv2hgW7iKJiYdcf7U68jIanzTqjOJ6nfA/n5W6Sycp+n+RWgwRaNFHM73jjJPC2k8h8A/cqAW5F9envTo6bKYzOXiF/IlJOIrzkgP/qj7FSNHnYN8tZLZbCH/fTO01Go9FkVEOi+11PdwL3t/2Q6H4PD23jH4JE90unLAJWSzUkuh8W+PSQ6D4mxPxRVoom14l8qypeSSFOc4j8843VNQqOvQc0v37oDQp4f/g8bg8Ft/cF+Ys1lVUUKvrOkD/CStFk4/f/6/0nwk9QZwpkZSVBovttl8cCLlcPJLrf+7F/uGFIdF+74xBYdXRAovuxaSmAAhLdx4SYT+7/HNz/S40NWgp1Axdo/h6vaVy5n/D+4YkE7R/nwtw8hZnlG+ST93fQ+42HsVosBX+u/+Qx0UAEJLpfNm232Wx2Wy0kuv/d/dH97AMGIdH91Ga9TqfTN2VAovuYEPO/f78o2GUiDkU5vl8utze3KKzvez/nt52nny+cn18P/D/Vnx5J4GRGyXxVcb4EitI/JulfI5O9A0uyDmTPbf4hAAAAAElFTkSuQmCC;" vertex="1" parent="1">
          <mxGeometry x="1244" y="-746" width="63" height="63" as="geometry" />
        </mxCell>
        <mxCell id="_PiH-gFInOYQ3cw0sFF--61" value="" style="rounded=1;whiteSpace=wrap;html=1;" vertex="1" parent="1">
          <mxGeometry x="540" y="-395" width="530" height="260" as="geometry" />
        </mxCell>
        <mxCell id="_PiH-gFInOYQ3cw0sFF--62" value="&lt;font style=&quot;font-size: 14px;&quot;&gt;Subnet - rms-data&lt;/font&gt;" style="text;strokeColor=none;fillColor=none;html=1;fontSize=24;fontStyle=1;verticalAlign=middle;align=center;" vertex="1" parent="1">
          <mxGeometry x="540" y="-395" width="180" height="40" as="geometry" />
        </mxCell>
        <mxCell id="_PiH-gFInOYQ3cw0sFF--65" value="kibana" style="shape=image;verticalLabelPosition=bottom;labelBackgroundColor=default;verticalAlign=top;aspect=fixed;imageAspect=0;image=data:image/png,iVBORw0KGgoAAAANSUhEUgAAAD8AAAA/CAMAAABggeDtAAAAAXNSR0IArs4c6QAAAARnQU1BAACxjwv8YQUAAAGnUExURQAAAAAAAAAAAAAAAAAAAAAAACQkJCAgIBwcHCQkJCIiIiAgIB4eHhwcHBsbGxoaGhgYGCEhIR8fHx0dHRwcHCIiIh8fHx4eHiIiIiEhISAgICQkJCQkJCIiIiYmJiAgICUlJSQkJB8fHx4eHiMjIyAgIB8fHyEhISAgICAgICMjIyIiIh4eHiEhISEhISAgIB8fHyIiIiIiIiEhIR4eHiEhISAgIB8fHyEhISQkJCMjIyAgICAgIB8fHyIiIh8fHx0dHSAgICIiIiAgICIiIiMjIx8fHyEhISEhISEhISEhISAgICEhISEhISEhISEhISAgICAgICEhISEhISIiIiIiIiEhISMjIyIiIiAgICIiIiIiIiEhIR8fHyAgICMjIyIiIiEhISEhISEhISIiIiEhISIiIiIiIiIiIiEhISEhISIiIiEhISEhISEhISEhISIiIiIiIiIiIiMjIyIiIiIiIiEhISIiIiIiIiIiIiIiIiEhISIiIiEhISEhISEhISIiIiEhISIiIiIiIiIiIiEhISIiIiEhISIiIiMjIyQkJCUlJSYmJhhwhsgAAACIdFJOUwABAgMEBgcICQ4PEBESExQVFyEjJCUpKi0uMDEyNDY3Nzk6OztAQkZHSElLTU1OUFJSU1VWVldaXV1eX2BiYmNoaGlwcXN6enyEhZGSk5SVlpebnJ6foqKsra2usLS4wMPHyMnJysrLzM7S1dfe3+Hh4uPl5ujp6erx8vX19vf4+Pn5+vv9/f7NRDh5AAAACXBIWXMAABcRAAAXEQHKJvM/AAABrUlEQVRYR+WXV1MCUQxGUeyC2Av2ir2gIBbE3hWl2Bv2hgW7iKJiYdcf7U68jIanzTqjOJ6nfA/n5W6Sycp+n+RWgwRaNFHM73jjJPC2k8h8A/cqAW5F9envTo6bKYzOXiF/IlJOIrzkgP/qj7FSNHnYN8tZLZbCH/fTO01Go9FkVEOi+11PdwL3t/2Q6H4PD23jH4JE90unLAJWSzUkuh8W+PSQ6D4mxPxRVoom14l8qypeSSFOc4j8843VNQqOvQc0v37oDQp4f/g8bg8Ft/cF+Ys1lVUUKvrOkD/CStFk4/f/6/0nwk9QZwpkZSVBovttl8cCLlcPJLrf+7F/uGFIdF+74xBYdXRAovuxaSmAAhLdx4SYT+7/HNz/S40NWgp1Axdo/h6vaVy5n/D+4YkE7R/nwtw8hZnlG+ST93fQ+42HsVosBX+u/+Qx0UAEJLpfNm232Wx2Wy0kuv/d/dH97AMGIdH91Ga9TqfTN2VAovuYEPO/f78o2GUiDkU5vl8utze3KKzvez/nt52nny+cn18P/D/Vnx5J4GRGyXxVcb4EitI/JulfI5O9A0uyDmTPbf4hAAAAAElFTkSuQmCC;" vertex="1" parent="1">
          <mxGeometry x="580" y="-296.5" width="63" height="63" as="geometry" />
        </mxCell>
        <mxCell id="_PiH-gFInOYQ3cw0sFF--21" value="kafka-002" style="shape=image;verticalLabelPosition=bottom;labelBackgroundColor=default;verticalAlign=top;aspect=fixed;imageAspect=0;image=data:image/png,iVBORw0KGgoAAAANSUhEUgAAAD8AAAA/CAMAAABggeDtAAAAAXNSR0IArs4c6QAAAARnQU1BAACxjwv8YQUAAAGnUExURQAAAAAAAAAAAAAAAAAAAAAAACQkJCAgIBwcHCQkJCIiIiAgIB4eHhwcHBsbGxoaGhgYGCEhIR8fHx0dHRwcHCIiIh8fHx4eHiIiIiEhISAgICQkJCQkJCIiIiYmJiAgICUlJSQkJB8fHx4eHiMjIyAgIB8fHyEhISAgICAgICMjIyIiIh4eHiEhISEhISAgIB8fHyIiIiIiIiEhIR4eHiEhISAgIB8fHyEhISQkJCMjIyAgICAgIB8fHyIiIh8fHx0dHSAgICIiIiAgICIiIiMjIx8fHyEhISEhISEhISEhISAgICEhISEhISEhISEhISAgICAgICEhISEhISIiIiIiIiEhISMjIyIiIiAgICIiIiIiIiEhIR8fHyAgICMjIyIiIiEhISEhISEhISIiIiEhISIiIiIiIiIiIiEhISEhISIiIiEhISEhISEhISEhISIiIiIiIiIiIiMjIyIiIiIiIiEhISIiIiIiIiIiIiIiIiEhISIiIiEhISEhISEhISIiIiEhISIiIiIiIiIiIiEhISIiIiEhISIiIiMjIyQkJCUlJSYmJhhwhsgAAACIdFJOUwABAgMEBgcICQ4PEBESExQVFyEjJCUpKi0uMDEyNDY3Nzk6OztAQkZHSElLTU1OUFJSU1VWVldaXV1eX2BiYmNoaGlwcXN6enyEhZGSk5SVlpebnJ6foqKsra2usLS4wMPHyMnJysrLzM7S1dfe3+Hh4uPl5ujp6erx8vX19vf4+Pn5+vv9/f7NRDh5AAAACXBIWXMAABcRAAAXEQHKJvM/AAABrUlEQVRYR+WXV1MCUQxGUeyC2Av2ir2gIBbE3hWl2Bv2hgW7iKJiYdcf7U68jIanzTqjOJ6nfA/n5W6Sycp+n+RWgwRaNFHM73jjJPC2k8h8A/cqAW5F9envTo6bKYzOXiF/IlJOIrzkgP/qj7FSNHnYN8tZLZbCH/fTO01Go9FkVEOi+11PdwL3t/2Q6H4PD23jH4JE90unLAJWSzUkuh8W+PSQ6D4mxPxRVoom14l8qypeSSFOc4j8843VNQqOvQc0v37oDQp4f/g8bg8Ft/cF+Ys1lVUUKvrOkD/CStFk4/f/6/0nwk9QZwpkZSVBovttl8cCLlcPJLrf+7F/uGFIdF+74xBYdXRAovuxaSmAAhLdx4SYT+7/HNz/S40NWgp1Axdo/h6vaVy5n/D+4YkE7R/nwtw8hZnlG+ST93fQ+42HsVosBX+u/+Qx0UAEJLpfNm232Wx2Wy0kuv/d/dH97AMGIdH91Ga9TqfTN2VAovuYEPO/f78o2GUiDkU5vl8utze3KKzvez/nt52nny+cn18P/D/Vnx5J4GRGyXxVcb4EitI/JulfI5O9A0uyDmTPbf4hAAAAAElFTkSuQmCC;" vertex="1" parent="1">
          <mxGeometry x="806" y="-351.25" width="63" height="63" as="geometry" />
        </mxCell>
        <mxCell id="_PiH-gFInOYQ3cw0sFF--22" value="kafka-001" style="shape=image;verticalLabelPosition=bottom;labelBackgroundColor=default;verticalAlign=top;aspect=fixed;imageAspect=0;image=data:image/png,iVBORw0KGgoAAAANSUhEUgAAAD8AAAA/CAMAAABggeDtAAAAAXNSR0IArs4c6QAAAARnQU1BAACxjwv8YQUAAAGnUExURQAAAAAAAAAAAAAAAAAAAAAAACQkJCAgIBwcHCQkJCIiIiAgIB4eHhwcHBsbGxoaGhgYGCEhIR8fHx0dHRwcHCIiIh8fHx4eHiIiIiEhISAgICQkJCQkJCIiIiYmJiAgICUlJSQkJB8fHx4eHiMjIyAgIB8fHyEhISAgICAgICMjIyIiIh4eHiEhISEhISAgIB8fHyIiIiIiIiEhIR4eHiEhISAgIB8fHyEhISQkJCMjIyAgICAgIB8fHyIiIh8fHx0dHSAgICIiIiAgICIiIiMjIx8fHyEhISEhISEhISEhISAgICEhISEhISEhISEhISAgICAgICEhISEhISIiIiIiIiEhISMjIyIiIiAgICIiIiIiIiEhIR8fHyAgICMjIyIiIiEhISEhISEhISIiIiEhISIiIiIiIiIiIiEhISEhISIiIiEhISEhISEhISEhISIiIiIiIiIiIiMjIyIiIiIiIiEhISIiIiIiIiIiIiIiIiEhISIiIiEhISEhISEhISIiIiEhISIiIiIiIiIiIiEhISIiIiEhISIiIiMjIyQkJCUlJSYmJhhwhsgAAACIdFJOUwABAgMEBgcICQ4PEBESExQVFyEjJCUpKi0uMDEyNDY3Nzk6OztAQkZHSElLTU1OUFJSU1VWVldaXV1eX2BiYmNoaGlwcXN6enyEhZGSk5SVlpebnJ6foqKsra2usLS4wMPHyMnJysrLzM7S1dfe3+Hh4uPl5ujp6erx8vX19vf4+Pn5+vv9/f7NRDh5AAAACXBIWXMAABcRAAAXEQHKJvM/AAABrUlEQVRYR+WXV1MCUQxGUeyC2Av2ir2gIBbE3hWl2Bv2hgW7iKJiYdcf7U68jIanzTqjOJ6nfA/n5W6Sycp+n+RWgwRaNFHM73jjJPC2k8h8A/cqAW5F9envTo6bKYzOXiF/IlJOIrzkgP/qj7FSNHnYN8tZLZbCH/fTO01Go9FkVEOi+11PdwL3t/2Q6H4PD23jH4JE90unLAJWSzUkuh8W+PSQ6D4mxPxRVoom14l8qypeSSFOc4j8843VNQqOvQc0v37oDQp4f/g8bg8Ft/cF+Ys1lVUUKvrOkD/CStFk4/f/6/0nwk9QZwpkZSVBovttl8cCLlcPJLrf+7F/uGFIdF+74xBYdXRAovuxaSmAAhLdx4SYT+7/HNz/S40NWgp1Axdo/h6vaVy5n/D+4YkE7R/nwtw8hZnlG+ST93fQ+42HsVosBX+u/+Qx0UAEJLpfNm232Wx2Wy0kuv/d/dH97AMGIdH91Ga9TqfTN2VAovuYEPO/f78o2GUiDkU5vl8utze3KKzvez/nt52nny+cn18P/D/Vnx5J4GRGyXxVcb4EitI/JulfI5O9A0uyDmTPbf4hAAAAAElFTkSuQmCC;" vertex="1" parent="1">
          <mxGeometry x="696" y="-351.25" width="63" height="63" as="geometry" />
        </mxCell>
        <mxCell id="_PiH-gFInOYQ3cw0sFF--70" value="kafka-003" style="shape=image;verticalLabelPosition=bottom;labelBackgroundColor=default;verticalAlign=top;aspect=fixed;imageAspect=0;image=data:image/png,iVBORw0KGgoAAAANSUhEUgAAAD8AAAA/CAMAAABggeDtAAAAAXNSR0IArs4c6QAAAARnQU1BAACxjwv8YQUAAAGnUExURQAAAAAAAAAAAAAAAAAAAAAAACQkJCAgIBwcHCQkJCIiIiAgIB4eHhwcHBsbGxoaGhgYGCEhIR8fHx0dHRwcHCIiIh8fHx4eHiIiIiEhISAgICQkJCQkJCIiIiYmJiAgICUlJSQkJB8fHx4eHiMjIyAgIB8fHyEhISAgICAgICMjIyIiIh4eHiEhISEhISAgIB8fHyIiIiIiIiEhIR4eHiEhISAgIB8fHyEhISQkJCMjIyAgICAgIB8fHyIiIh8fHx0dHSAgICIiIiAgICIiIiMjIx8fHyEhISEhISEhISEhISAgICEhISEhISEhISEhISAgICAgICEhISEhISIiIiIiIiEhISMjIyIiIiAgICIiIiIiIiEhIR8fHyAgICMjIyIiIiEhISEhISEhISIiIiEhISIiIiIiIiIiIiEhISEhISIiIiEhISEhISEhISEhISIiIiIiIiIiIiMjIyIiIiIiIiEhISIiIiIiIiIiIiIiIiEhISIiIiEhISEhISEhISIiIiEhISIiIiIiIiIiIiEhISIiIiEhISIiIiMjIyQkJCUlJSYmJhhwhsgAAACIdFJOUwABAgMEBgcICQ4PEBESExQVFyEjJCUpKi0uMDEyNDY3Nzk6OztAQkZHSElLTU1OUFJSU1VWVldaXV1eX2BiYmNoaGlwcXN6enyEhZGSk5SVlpebnJ6foqKsra2usLS4wMPHyMnJysrLzM7S1dfe3+Hh4uPl5ujp6erx8vX19vf4+Pn5+vv9/f7NRDh5AAAACXBIWXMAABcRAAAXEQHKJvM/AAABrUlEQVRYR+WXV1MCUQxGUeyC2Av2ir2gIBbE3hWl2Bv2hgW7iKJiYdcf7U68jIanzTqjOJ6nfA/n5W6Sycp+n+RWgwRaNFHM73jjJPC2k8h8A/cqAW5F9envTo6bKYzOXiF/IlJOIrzkgP/qj7FSNHnYN8tZLZbCH/fTO01Go9FkVEOi+11PdwL3t/2Q6H4PD23jH4JE90unLAJWSzUkuh8W+PSQ6D4mxPxRVoom14l8qypeSSFOc4j8843VNQqOvQc0v37oDQp4f/g8bg8Ft/cF+Ys1lVUUKvrOkD/CStFk4/f/6/0nwk9QZwpkZSVBovttl8cCLlcPJLrf+7F/uGFIdF+74xBYdXRAovuxaSmAAhLdx4SYT+7/HNz/S40NWgp1Axdo/h6vaVy5n/D+4YkE7R/nwtw8hZnlG+ST93fQ+42HsVosBX+u/+Qx0UAEJLpfNm232Wx2Wy0kuv/d/dH97AMGIdH91Ga9TqfTN2VAovuYEPO/f78o2GUiDkU5vl8utze3KKzvez/nt52nny+cn18P/D/Vnx5J4GRGyXxVcb4EitI/JulfI5O9A0uyDmTPbf4hAAAAAElFTkSuQmCC;" vertex="1" parent="1">
          <mxGeometry x="916" y="-351.25" width="63" height="63" as="geometry" />
        </mxCell>
        <mxCell id="_PiH-gFInOYQ3cw0sFF--74" value="" style="shape=image;verticalLabelPosition=bottom;labelBackgroundColor=default;verticalAlign=top;aspect=fixed;imageAspect=0;image=data:image/png,iVBORw0KGgoAAAANSUhEUgAAACMAAAAfCAMAAABav4S9AAAAAXNSR0IArs4c6QAAAARnQU1BAACxjwv8YQUAAAGnUExURQAAAAAAACAgIBwcHBsbGyQkJCMjFyEhISAgIBwcHCQkGyMjGiIiGiEhGR8fHx0dHRwcHBwcHBsbGyEhGhwcHBwcHCEhHBsbGx4eHh0dHR0dHRwcHBwcHB8fGh4eGh4eHh0dHR0dHR8fGx8fGx4eGh0dGh0dGR8fHB4eGh0dHR0dHRwcHBwcGR8fHB4eGx4eHB4eGyAgHSAgHR8fGhwcHBwcHB4eHB0dGh0dHRwcHB4eHB0dHR8fGh4eHB4eHB0dHB0dGx8fHR0dGx4eHB0dGx0dGx4eHB4eGh4eHB0dHB4eGx4eGh0dHB0dGx4eGx4eGx4eGxwcGx8fHB0dGx4eGx4eGxwcGx4eGx8fHR0dHB0dHB0dGxwcGx4eHB0dHB8fHB8fHR8fHB4eHB0dHB0dGx0dHB4eGx4eHBwcGh0dGx0dHB0dHB0dGx0dHB4eHB0dGx8fHR8fHR4eHR8fHR4eGx0dGx0dGx0dHB4eHB4eHB0dGx4eHB0dGx4eHB0dGx4eGx0dGx0dHB4eHB8fHB0dGx0dHB4eHB8fHSAgHSAgHiEhHiEhHyMjIQ+Gh8EAAACEdFJOUwAECAkTFRYXGBscHR4fISMkJSYnLS4uLzM0NTY3Ojs8PT5BQkVGR0lNTk9RUlNUXF1gYWJjZGVra2xudHR2d4uMjo+SlZaam5udo6Smp6ipsrOzurq8vb2/wcLDxcbHx83R09Xi4ubm6erq6+zs7O7v8PHx8vP09PT29/f4+fv8/v7+/j0lKR4AAAAJcEhZcwAAFxEAABcRAcom8z8AAAHkSURBVDhPnZPnUyJBEMWfARNGVFREMed4nngYMWFWzGLOAVHv9LzDjIrTLPhHuwyjWLiWlL8PW9PTXVvTr1/jOxROFYrT5/zwNYqTMrFVvdZdz661typW3ISSOXhBl1uTlsmtS7oYzBS3bySttUZ3091QURQPo4qH7qg7unUtiYcB1Lb7PY8lHtC19Q/0t+mAeItn78mmFnlOLt1UI6Jzh1y3dOui7c4IVN9QrshyVJtnedCv02JDcjP9TG5YpHU98s42VSLvZ1iqQdmV1yQf66hW/v7yXpWhRhrmWU4BjSD99Ph8IwMwkhHI2Dg/Pk3HCBlEBTDBUjBDWoPTbrLK77GaDp0GLc0ghY2JCqj+z0Ev9QFZR74Ts9F84nPI6vRJesz9e31RttSOLkqTZfqzGifHcSu/EwENdaFdyuYVmnIzVWD2ura0ZOwxB00LTch5HC0prbueRQWZyzVyTY/E3PlYJsYY7Ufi4PkAkfs8Wka+m0k9Yf4nnPe878vh5X15HVmBvubf+sI4S8U0aQuc9hauT4vdr880UoP6KOn8N1TncOYVnHs9n3v9ksLcoeP+6dghd8A/Hdw/steCqG0PCj5ktgSR9xPq5yIFP3O+2AtBTKXYr8oYcaPMV3vqJ5x9/wDwAr9Rn/D2yCdlAAAAAElFTkSuQmCC;" vertex="1" parent="1">
          <mxGeometry x="20.25" y="-340" width="35" height="31" as="geometry" />
        </mxCell>
        <mxCell id="_PiH-gFInOYQ3cw0sFF--118" style="edgeStyle=orthogonalEdgeStyle;rounded=0;orthogonalLoop=1;jettySize=auto;html=1;entryX=1;entryY=0.5;entryDx=0;entryDy=0;fontSize=24;" edge="1" parent="1" source="_PiH-gFInOYQ3cw0sFF--75" target="_PiH-gFInOYQ3cw0sFF--90">
          <mxGeometry relative="1" as="geometry">
            <Array as="points">
              <mxPoint x="1045" y="-1064" />
            </Array>
          </mxGeometry>
        </mxCell>
        <mxCell id="_PiH-gFInOYQ3cw0sFF--75" value="IGW" style="shape=image;verticalLabelPosition=bottom;labelBackgroundColor=default;verticalAlign=top;aspect=fixed;imageAspect=0;image=data:image/png,iVBORw0KGgoAAAANSUhEUgAAADIAAAAsCAYAAAAn4+taAAAAAXNSR0IArs4c6QAAAARnQU1BAACxjwv8YQUAAAAJcEhZcwAAFxEAABcRAcom8z8AAAfDSURBVGhD7ZlrjFXVFceHprUQW0FEEbizH2efc+9ldGaqlAbsY0AUMCZE8EPVCPFR/WD6MFGbtB86TZs0irRpwyebpo+krZpI/AAoJEqK0qhYq2njE8RnZZgCKnTUGWFuf2ufdW8Z595hwM7MNe0/2bln9uus/3rttc+0/M+gsKAwpa2t7XM8Tsp7PkHosnZy5sINqfX3BOd2BOt2ps5vCtb/MITQqtOaG2maFiCwpehDpRTSSuaTCiTiczEJFYjtCTYs1+nNiUKhMCVYu7WUpJXE2H6eb8+c+1pq7YLU++sh8XwJMql1PdKny5oPCLpatM/vQGbtNdpdQ9FgJ2tfEKIQuXfevHmfoVtip1GbGCDkHeJC3tpHl6fpZ7V7CJjzfXG7xNoBYgc3cy/Tdmt7ObFuFxZ7iecd1tqzddn4Ai3fWYZIMG5zpVJfo8GYb0rcBCyXWy//jc/Wxd8i47jmoSRJjC4bX0DgVtE2rtXrvZ+v3TWQhk9hzgMx6CWTeX9x6lwXVlosTeKJ3x9nQsrYfROW4UrWusS4VzQ7PU1bhntMkyTgnCsh/K/yLEbz/mpdNgS43MposYkkIsASl+LnvRIr4iYQ+6v4O5Z4WwjGPue6mVrX9SByRVMQEWTefwlr3AeBd0X4mHIhgBs9iqBX6rS6aCoiVRStLScmWSIHYNKafFFcTIcaoimJnAxOlsjMmTNPLXnfrglkKefYFzqJTx0ef4jrnQgRqRCIufXE5R7WDOQuHFP5h2TANymXfidJR6ePH0ZLhJrutOCSnyHwB7XEYm0v614kwTxPctkrfdUxrHR3yZacLj9BUIIUjfGZzeZyuE3V3hExGiJkxplU0tR0mgWNu98bc/m59DMcs2F7e/vp7HUJhH5NpXA0HgkQTI1pk/FRAaHP4qz4Adr6Gyf325j9ME3MfFfR+w6dVhfHIxIPVdGuCOZcH3tep0MNwbwVYiFZgxxPYc0zdagxRFB88xlZlAvk3pdyI5o51+BBArFhCobIiMGeGn91xoGKggYRcLX0lUql2aK8rq6uT2dZNofDl3PYunil0JoPmRZVjwPc7CfS1xCk1+kI8HiuLb83eH8LblDMCtmczCYr2ewRqaPY8DAvXqLLhkBcRIn0FIvFGdpdxSSUskXqOQjfJx0iIPNRlnsQEgl7SxH6AS2v3ax7InXpUp17u7rYK3X2/g/Q0I0iBFp/jzPkMu2uQXybjZ+MJna82BjksaK+2EST9H9b9kDg/SGYC44dI96WQPAd9j+CVa+QPRFuuQjH/O1YMEX4g+LOaP27tHXiCfS9JDFKO5fnAYgMFG1ySRSqHsjha2P1a91DYmbtHoKMwjJq3LpB/PWfCNJD26etB4HeZUzGj8Jyf20cH6choGQndyC16XmyXzwz8v0exo0CvwdZt7vdmNPz+49jX3dY3LQNj8Fyu6Ky/QixVS3jE+O3dnd3f0q7h4A5N8eNRFjih5f00d7T1ocQ3CwjkcGPjPNr+6tEggnnx/2GE/kHTZT0hqyJrmz8b5g6qbW1dTZEdsf3J8m1sr4uePG3NAb+VawTAwTl5xl7JN4QjdsWWlvPKVEVSykjTZ4R9hZ5EZY5wPOi6rj+SjoVqxwhW10le+LOy4YQIbZ4Pkz/3aTon4dWt0beK3NJRPMZG2BvLnW28XcDyRxM/LsG+x7uF2tIl9MXLChMoZD8KmMblWh/cGGFLhsCLLIqCoZA5XL5DO2uQYK6jCIgtEH+FouoO++UxMKvPO8rz549bC3KWxeDnSpA5NLu+qBAXIgm9uTpNwbaAbSzV14QCZJR0OZNOn0YIDLiOSKWkIsXVhmUNC5z8Pc/Qqg7Pyjtb3Gr9RLcuiQiM/4i3n0oXvys/ZF2j4y5ZBhe+AvxUzQoPn+Utp+Xb+CFXTqtLo5HRD5YsNfv8/PAvy+ZUocawntzOWt6c0XanfWsNSI6bee0cgjziJcvo6FR3b+PR0RQnFWcAYHNkUzuqptkXZxfqcQSpSO6ub3MG/cHlJd/U6PSEPeLm4w1EGhUZXxHR8epWH0twvVJYRjXiBvHLzF2F61XMlytaKQKlpNel489RkukCl/w89H4T4nLF8TVEFiEFlL97PEqz7/kcnehTh8/nCiRKjj9J0uKlhjEpRbPDeEc/Xj+8ZFlhTn4JLnbLpSXaPeIOFkiYwI5wBDoLjlL5NOP+i+lh91IG/EDNuuOG+zjAjLUV4SAnN4q0Guk4WchMqiZ4wjC3qzTh6EpiJSNmcW58ZwKvFvcJE3nyJ3gTP1EtCGe7M5RvSYrddkQHFPGTxwRSvDviBBkj4NUb4u0uwZJmQj4J7EWWWY7BeR5cvWU8loaJ/VcFHHbxBPxWv1au6Wlu6V+9atksZi0Dyng+qWI0xYrXyXyzmgP0f86COR4H0Gr2/R/H8OA1W7TwlHuG70Uf9wzqFirzbq3KPFfJ66ekiusLhtfcLX9hrpWHzGwSrtriEWdcU/LaYvAG9H4WeT/aVKJfrR1dnZOa3SnGXMg2FQ0+edYnHFvoN0ajDk/+r7c2Z1/TBIBcw6VbFisy5oTcobgYo9LuXxMuqV8TijjJX643jr3dZ3e3CjOmjWDrPQ9XOwhiLwGsR6e/0Kgr8e92nXaJwf4+ilt1p4tVSftNO3+P8YOLS3/Blt97ASPF0zhAAAAAElFTkSuQmCC;" vertex="1" parent="1">
          <mxGeometry x="1020" y="-870" width="50" height="44" as="geometry" />
        </mxCell>
        <mxCell id="_PiH-gFInOYQ3cw0sFF--18" value="elasticsearch-003" style="shape=image;verticalLabelPosition=bottom;labelBackgroundColor=default;verticalAlign=top;aspect=fixed;imageAspect=0;image=data:image/png,iVBORw0KGgoAAAANSUhEUgAAAD8AAAA/CAMAAABggeDtAAAAAXNSR0IArs4c6QAAAARnQU1BAACxjwv8YQUAAAGnUExURQAAAAAAAAAAAAAAAAAAAAAAACQkJCAgIBwcHCQkJCIiIiAgIB4eHhwcHBsbGxoaGhgYGCEhIR8fHx0dHRwcHCIiIh8fHx4eHiIiIiEhISAgICQkJCQkJCIiIiYmJiAgICUlJSQkJB8fHx4eHiMjIyAgIB8fHyEhISAgICAgICMjIyIiIh4eHiEhISEhISAgIB8fHyIiIiIiIiEhIR4eHiEhISAgIB8fHyEhISQkJCMjIyAgICAgIB8fHyIiIh8fHx0dHSAgICIiIiAgICIiIiMjIx8fHyEhISEhISEhISEhISAgICEhISEhISEhISEhISAgICAgICEhISEhISIiIiIiIiEhISMjIyIiIiAgICIiIiIiIiEhIR8fHyAgICMjIyIiIiEhISEhISEhISIiIiEhISIiIiIiIiIiIiEhISEhISIiIiEhISEhISEhISEhISIiIiIiIiIiIiMjIyIiIiIiIiEhISIiIiIiIiIiIiIiIiEhISIiIiEhISEhISEhISIiIiEhISIiIiIiIiIiIiEhISIiIiEhISIiIiMjIyQkJCUlJSYmJhhwhsgAAACIdFJOUwABAgMEBgcICQ4PEBESExQVFyEjJCUpKi0uMDEyNDY3Nzk6OztAQkZHSElLTU1OUFJSU1VWVldaXV1eX2BiYmNoaGlwcXN6enyEhZGSk5SVlpebnJ6foqKsra2usLS4wMPHyMnJysrLzM7S1dfe3+Hh4uPl5ujp6erx8vX19vf4+Pn5+vv9/f7NRDh5AAAACXBIWXMAABcRAAAXEQHKJvM/AAABrUlEQVRYR+WXV1MCUQxGUeyC2Av2ir2gIBbE3hWl2Bv2hgW7iKJiYdcf7U68jIanzTqjOJ6nfA/n5W6Sycp+n+RWgwRaNFHM73jjJPC2k8h8A/cqAW5F9envTo6bKYzOXiF/IlJOIrzkgP/qj7FSNHnYN8tZLZbCH/fTO01Go9FkVEOi+11PdwL3t/2Q6H4PD23jH4JE90unLAJWSzUkuh8W+PSQ6D4mxPxRVoom14l8qypeSSFOc4j8843VNQqOvQc0v37oDQp4f/g8bg8Ft/cF+Ys1lVUUKvrOkD/CStFk4/f/6/0nwk9QZwpkZSVBovttl8cCLlcPJLrf+7F/uGFIdF+74xBYdXRAovuxaSmAAhLdx4SYT+7/HNz/S40NWgp1Axdo/h6vaVy5n/D+4YkE7R/nwtw8hZnlG+ST93fQ+42HsVosBX+u/+Qx0UAEJLpfNm232Wx2Wy0kuv/d/dH97AMGIdH91Ga9TqfTN2VAovuYEPO/f78o2GUiDkU5vl8utze3KKzvez/nt52nny+cn18P/D/Vnx5J4GRGyXxVcb4EitI/JulfI5O9A0uyDmTPbf4hAAAAAElFTkSuQmCC;" vertex="1" parent="1">
          <mxGeometry x="916" y="-243.75" width="63" height="63" as="geometry" />
        </mxCell>
        <mxCell id="_PiH-gFInOYQ3cw0sFF--20" value="elasticsearch-002" style="shape=image;verticalLabelPosition=bottom;labelBackgroundColor=default;verticalAlign=top;aspect=fixed;imageAspect=0;image=data:image/png,iVBORw0KGgoAAAANSUhEUgAAAD8AAAA/CAMAAABggeDtAAAAAXNSR0IArs4c6QAAAARnQU1BAACxjwv8YQUAAAGnUExURQAAAAAAAAAAAAAAAAAAAAAAACQkJCAgIBwcHCQkJCIiIiAgIB4eHhwcHBsbGxoaGhgYGCEhIR8fHx0dHRwcHCIiIh8fHx4eHiIiIiEhISAgICQkJCQkJCIiIiYmJiAgICUlJSQkJB8fHx4eHiMjIyAgIB8fHyEhISAgICAgICMjIyIiIh4eHiEhISEhISAgIB8fHyIiIiIiIiEhIR4eHiEhISAgIB8fHyEhISQkJCMjIyAgICAgIB8fHyIiIh8fHx0dHSAgICIiIiAgICIiIiMjIx8fHyEhISEhISEhISEhISAgICEhISEhISEhISEhISAgICAgICEhISEhISIiIiIiIiEhISMjIyIiIiAgICIiIiIiIiEhIR8fHyAgICMjIyIiIiEhISEhISEhISIiIiEhISIiIiIiIiIiIiEhISEhISIiIiEhISEhISEhISEhISIiIiIiIiIiIiMjIyIiIiIiIiEhISIiIiIiIiIiIiIiIiEhISIiIiEhISEhISEhISIiIiEhISIiIiIiIiIiIiEhISIiIiEhISIiIiMjIyQkJCUlJSYmJhhwhsgAAACIdFJOUwABAgMEBgcICQ4PEBESExQVFyEjJCUpKi0uMDEyNDY3Nzk6OztAQkZHSElLTU1OUFJSU1VWVldaXV1eX2BiYmNoaGlwcXN6enyEhZGSk5SVlpebnJ6foqKsra2usLS4wMPHyMnJysrLzM7S1dfe3+Hh4uPl5ujp6erx8vX19vf4+Pn5+vv9/f7NRDh5AAAACXBIWXMAABcRAAAXEQHKJvM/AAABrUlEQVRYR+WXV1MCUQxGUeyC2Av2ir2gIBbE3hWl2Bv2hgW7iKJiYdcf7U68jIanzTqjOJ6nfA/n5W6Sycp+n+RWgwRaNFHM73jjJPC2k8h8A/cqAW5F9envTo6bKYzOXiF/IlJOIrzkgP/qj7FSNHnYN8tZLZbCH/fTO01Go9FkVEOi+11PdwL3t/2Q6H4PD23jH4JE90unLAJWSzUkuh8W+PSQ6D4mxPxRVoom14l8qypeSSFOc4j8843VNQqOvQc0v37oDQp4f/g8bg8Ft/cF+Ys1lVUUKvrOkD/CStFk4/f/6/0nwk9QZwpkZSVBovttl8cCLlcPJLrf+7F/uGFIdF+74xBYdXRAovuxaSmAAhLdx4SYT+7/HNz/S40NWgp1Axdo/h6vaVy5n/D+4YkE7R/nwtw8hZnlG+ST93fQ+42HsVosBX+u/+Qx0UAEJLpfNm232Wx2Wy0kuv/d/dH97AMGIdH91Ga9TqfTN2VAovuYEPO/f78o2GUiDkU5vl8utze3KKzvez/nt52nny+cn18P/D/Vnx5J4GRGyXxVcb4EitI/JulfI5O9A0uyDmTPbf4hAAAAAElFTkSuQmCC;" vertex="1" parent="1">
          <mxGeometry x="806" y="-243.75" width="63" height="63" as="geometry" />
        </mxCell>
        <mxCell id="_PiH-gFInOYQ3cw0sFF--25" value="elasticsearch-001" style="shape=image;verticalLabelPosition=bottom;labelBackgroundColor=default;verticalAlign=top;aspect=fixed;imageAspect=0;image=data:image/png,iVBORw0KGgoAAAANSUhEUgAAAD8AAAA/CAMAAABggeDtAAAAAXNSR0IArs4c6QAAAARnQU1BAACxjwv8YQUAAAGnUExURQAAAAAAAAAAAAAAAAAAAAAAACQkJCAgIBwcHCQkJCIiIiAgIB4eHhwcHBsbGxoaGhgYGCEhIR8fHx0dHRwcHCIiIh8fHx4eHiIiIiEhISAgICQkJCQkJCIiIiYmJiAgICUlJSQkJB8fHx4eHiMjIyAgIB8fHyEhISAgICAgICMjIyIiIh4eHiEhISEhISAgIB8fHyIiIiIiIiEhIR4eHiEhISAgIB8fHyEhISQkJCMjIyAgICAgIB8fHyIiIh8fHx0dHSAgICIiIiAgICIiIiMjIx8fHyEhISEhISEhISEhISAgICEhISEhISEhISEhISAgICAgICEhISEhISIiIiIiIiEhISMjIyIiIiAgICIiIiIiIiEhIR8fHyAgICMjIyIiIiEhISEhISEhISIiIiEhISIiIiIiIiIiIiEhISEhISIiIiEhISEhISEhISEhISIiIiIiIiIiIiMjIyIiIiIiIiEhISIiIiIiIiIiIiIiIiEhISIiIiEhISEhISEhISIiIiEhISIiIiIiIiIiIiEhISIiIiEhISIiIiMjIyQkJCUlJSYmJhhwhsgAAACIdFJOUwABAgMEBgcICQ4PEBESExQVFyEjJCUpKi0uMDEyNDY3Nzk6OztAQkZHSElLTU1OUFJSU1VWVldaXV1eX2BiYmNoaGlwcXN6enyEhZGSk5SVlpebnJ6foqKsra2usLS4wMPHyMnJysrLzM7S1dfe3+Hh4uPl5ujp6erx8vX19vf4+Pn5+vv9/f7NRDh5AAAACXBIWXMAABcRAAAXEQHKJvM/AAABrUlEQVRYR+WXV1MCUQxGUeyC2Av2ir2gIBbE3hWl2Bv2hgW7iKJiYdcf7U68jIanzTqjOJ6nfA/n5W6Sycp+n+RWgwRaNFHM73jjJPC2k8h8A/cqAW5F9envTo6bKYzOXiF/IlJOIrzkgP/qj7FSNHnYN8tZLZbCH/fTO01Go9FkVEOi+11PdwL3t/2Q6H4PD23jH4JE90unLAJWSzUkuh8W+PSQ6D4mxPxRVoom14l8qypeSSFOc4j8843VNQqOvQc0v37oDQp4f/g8bg8Ft/cF+Ys1lVUUKvrOkD/CStFk4/f/6/0nwk9QZwpkZSVBovttl8cCLlcPJLrf+7F/uGFIdF+74xBYdXRAovuxaSmAAhLdx4SYT+7/HNz/S40NWgp1Axdo/h6vaVy5n/D+4YkE7R/nwtw8hZnlG+ST93fQ+42HsVosBX+u/+Qx0UAEJLpfNm232Wx2Wy0kuv/d/dH97AMGIdH91Ga9TqfTN2VAovuYEPO/f78o2GUiDkU5vl8utze3KKzvez/nt52nny+cn18P/D/Vnx5J4GRGyXxVcb4EitI/JulfI5O9A0uyDmTPbf4hAAAAAElFTkSuQmCC;" vertex="1" parent="1">
          <mxGeometry x="696" y="-243.75" width="63" height="63" as="geometry" />
        </mxCell>
        <mxCell id="_PiH-gFInOYQ3cw0sFF--76" value="" style="rounded=1;whiteSpace=wrap;html=1;" vertex="1" parent="1">
          <mxGeometry x="1100" y="-395" width="580" height="260" as="geometry" />
        </mxCell>
        <mxCell id="_PiH-gFInOYQ3cw0sFF--64" value="&lt;font style=&quot;font-size: 14px;&quot;&gt;Subnet - rms-k8s&lt;/font&gt;" style="text;strokeColor=none;fillColor=none;html=1;fontSize=24;fontStyle=1;verticalAlign=middle;align=center;" vertex="1" parent="1">
          <mxGeometry x="1100" y="-395" width="180" height="40" as="geometry" />
        </mxCell>
        <mxCell id="_PiH-gFInOYQ3cw0sFF--73" value="" style="shape=image;verticalLabelPosition=bottom;labelBackgroundColor=default;verticalAlign=top;aspect=fixed;imageAspect=0;image=data:image/png,iVBORw0KGgoAAAANSUhEUgAAACMAAAAfCAMAAABav4S9AAAAAXNSR0IArs4c6QAAAARnQU1BAACxjwv8YQUAAAGnUExURQAAAAAAACAgIBwcHBsbGyQkJCMjFyEhISAgIBwcHCQkGyMjGiIiGiEhGR8fHx0dHRwcHBwcHBsbGyEhGhwcHBwcHCEhHBsbGx4eHh0dHR0dHRwcHBwcHB8fGh4eGh4eHh0dHR0dHR8fGx8fGx4eGh0dGh0dGR8fHB4eGh0dHR0dHRwcHBwcGR8fHB4eGx4eHB4eGyAgHSAgHR8fGhwcHBwcHB4eHB0dGh0dHRwcHB4eHB0dHR8fGh4eHB4eHB0dHB0dGx8fHR0dGx4eHB0dGx0dGx4eHB4eGh4eHB0dHB4eGx4eGh0dHB0dGx4eGx4eGx4eGxwcGx8fHB0dGx4eGx4eGxwcGx4eGx8fHR0dHB0dHB0dGxwcGx4eHB0dHB8fHB8fHR8fHB4eHB0dHB0dGx0dHB4eGx4eHBwcGh0dGx0dHB0dHB0dGx0dHB4eHB0dGx8fHR8fHR4eHR8fHR4eGx0dGx0dGx0dHB4eHB4eHB0dGx4eHB0dGx4eHB0dGx4eGx0dGx0dHB4eHB8fHB0dGx0dHB4eHB8fHSAgHSAgHiEhHiEhHyMjIQ+Gh8EAAACEdFJOUwAECAkTFRYXGBscHR4fISMkJSYnLS4uLzM0NTY3Ojs8PT5BQkVGR0lNTk9RUlNUXF1gYWJjZGVra2xudHR2d4uMjo+SlZaam5udo6Smp6ipsrOzurq8vb2/wcLDxcbHx83R09Xi4ubm6erq6+zs7O7v8PHx8vP09PT29/f4+fv8/v7+/j0lKR4AAAAJcEhZcwAAFxEAABcRAcom8z8AAAHkSURBVDhPnZPnUyJBEMWfARNGVFREMed4nngYMWFWzGLOAVHv9LzDjIrTLPhHuwyjWLiWlL8PW9PTXVvTr1/jOxROFYrT5/zwNYqTMrFVvdZdz661typW3ISSOXhBl1uTlsmtS7oYzBS3bySttUZ3091QURQPo4qH7qg7unUtiYcB1Lb7PY8lHtC19Q/0t+mAeItn78mmFnlOLt1UI6Jzh1y3dOui7c4IVN9QrshyVJtnedCv02JDcjP9TG5YpHU98s42VSLvZ1iqQdmV1yQf66hW/v7yXpWhRhrmWU4BjSD99Ph8IwMwkhHI2Dg/Pk3HCBlEBTDBUjBDWoPTbrLK77GaDp0GLc0ghY2JCqj+z0Ev9QFZR74Ts9F84nPI6vRJesz9e31RttSOLkqTZfqzGifHcSu/EwENdaFdyuYVmnIzVWD2ura0ZOwxB00LTch5HC0prbueRQWZyzVyTY/E3PlYJsYY7Ufi4PkAkfs8Wka+m0k9Yf4nnPe878vh5X15HVmBvubf+sI4S8U0aQuc9hauT4vdr880UoP6KOn8N1TncOYVnHs9n3v9ksLcoeP+6dghd8A/Hdw/steCqG0PCj5ktgSR9xPq5yIFP3O+2AtBTKXYr8oYcaPMV3vqJ5x9/wDwAr9Rn/D2yCdlAAAAAElFTkSuQmCC;" vertex="1" parent="1">
          <mxGeometry x="1263" y="-386" width="35" height="31" as="geometry" />
        </mxCell>
        <mxCell id="_PiH-gFInOYQ3cw0sFF--9" value="rms-w-6pq" style="shape=image;verticalLabelPosition=bottom;labelBackgroundColor=default;verticalAlign=top;aspect=fixed;imageAspect=0;image=data:image/png,iVBORw0KGgoAAAANSUhEUgAAAD8AAAA/CAMAAABggeDtAAAAAXNSR0IArs4c6QAAAARnQU1BAACxjwv8YQUAAAGnUExURQAAAAAAAAAAAAAAAAAAAAAAACQkJCAgIBwcHCQkJCIiIiAgIB4eHhwcHBsbGxoaGhgYGCEhIR8fHx0dHRwcHCIiIh8fHx4eHiIiIiEhISAgICQkJCQkJCIiIiYmJiAgICUlJSQkJB8fHx4eHiMjIyAgIB8fHyEhISAgICAgICMjIyIiIh4eHiEhISEhISAgIB8fHyIiIiIiIiEhIR4eHiEhISAgIB8fHyEhISQkJCMjIyAgICAgIB8fHyIiIh8fHx0dHSAgICIiIiAgICIiIiMjIx8fHyEhISEhISEhISEhISAgICEhISEhISEhISEhISAgICAgICEhISEhISIiIiIiIiEhISMjIyIiIiAgICIiIiIiIiEhIR8fHyAgICMjIyIiIiEhISEhISEhISIiIiEhISIiIiIiIiIiIiEhISEhISIiIiEhISEhISEhISEhISIiIiIiIiIiIiMjIyIiIiIiIiEhISIiIiIiIiIiIiIiIiEhISIiIiEhISEhISEhISIiIiEhISIiIiIiIiIiIiEhISIiIiEhISIiIiMjIyQkJCUlJSYmJhhwhsgAAACIdFJOUwABAgMEBgcICQ4PEBESExQVFyEjJCUpKi0uMDEyNDY3Nzk6OztAQkZHSElLTU1OUFJSU1VWVldaXV1eX2BiYmNoaGlwcXN6enyEhZGSk5SVlpebnJ6foqKsra2usLS4wMPHyMnJysrLzM7S1dfe3+Hh4uPl5ujp6erx8vX19vf4+Pn5+vv9/f7NRDh5AAAACXBIWXMAABcRAAAXEQHKJvM/AAABrUlEQVRYR+WXV1MCUQxGUeyC2Av2ir2gIBbE3hWl2Bv2hgW7iKJiYdcf7U68jIanzTqjOJ6nfA/n5W6Sycp+n+RWgwRaNFHM73jjJPC2k8h8A/cqAW5F9envTo6bKYzOXiF/IlJOIrzkgP/qj7FSNHnYN8tZLZbCH/fTO01Go9FkVEOi+11PdwL3t/2Q6H4PD23jH4JE90unLAJWSzUkuh8W+PSQ6D4mxPxRVoom14l8qypeSSFOc4j8843VNQqOvQc0v37oDQp4f/g8bg8Ft/cF+Ys1lVUUKvrOkD/CStFk4/f/6/0nwk9QZwpkZSVBovttl8cCLlcPJLrf+7F/uGFIdF+74xBYdXRAovuxaSmAAhLdx4SYT+7/HNz/S40NWgp1Axdo/h6vaVy5n/D+4YkE7R/nwtw8hZnlG+ST93fQ+42HsVosBX+u/+Qx0UAEJLpfNm232Wx2Wy0kuv/d/dH97AMGIdH91Ga9TqfTN2VAovuYEPO/f78o2GUiDkU5vl8utze3KKzvez/nt52nny+cn18P/D/Vnx5J4GRGyXxVcb4EitI/JulfI5O9A0uyDmTPbf4hAAAAAElFTkSuQmCC;" vertex="1" parent="1">
          <mxGeometry x="1355.5" y="-351.25" width="63" height="63" as="geometry" />
        </mxCell>
        <mxCell id="_PiH-gFInOYQ3cw0sFF--15" value="rms-w-88r" style="shape=image;verticalLabelPosition=bottom;labelBackgroundColor=default;verticalAlign=top;aspect=fixed;imageAspect=0;image=data:image/png,iVBORw0KGgoAAAANSUhEUgAAAD8AAAA/CAMAAABggeDtAAAAAXNSR0IArs4c6QAAAARnQU1BAACxjwv8YQUAAAGnUExURQAAAAAAAAAAAAAAAAAAAAAAACQkJCAgIBwcHCQkJCIiIiAgIB4eHhwcHBsbGxoaGhgYGCEhIR8fHx0dHRwcHCIiIh8fHx4eHiIiIiEhISAgICQkJCQkJCIiIiYmJiAgICUlJSQkJB8fHx4eHiMjIyAgIB8fHyEhISAgICAgICMjIyIiIh4eHiEhISEhISAgIB8fHyIiIiIiIiEhIR4eHiEhISAgIB8fHyEhISQkJCMjIyAgICAgIB8fHyIiIh8fHx0dHSAgICIiIiAgICIiIiMjIx8fHyEhISEhISEhISEhISAgICEhISEhISEhISEhISAgICAgICEhISEhISIiIiIiIiEhISMjIyIiIiAgICIiIiIiIiEhIR8fHyAgICMjIyIiIiEhISEhISEhISIiIiEhISIiIiIiIiIiIiEhISEhISIiIiEhISEhISEhISEhISIiIiIiIiIiIiMjIyIiIiIiIiEhISIiIiIiIiIiIiIiIiEhISIiIiEhISEhISEhISIiIiEhISIiIiIiIiIiIiEhISIiIiEhISIiIiMjIyQkJCUlJSYmJhhwhsgAAACIdFJOUwABAgMEBgcICQ4PEBESExQVFyEjJCUpKi0uMDEyNDY3Nzk6OztAQkZHSElLTU1OUFJSU1VWVldaXV1eX2BiYmNoaGlwcXN6enyEhZGSk5SVlpebnJ6foqKsra2usLS4wMPHyMnJysrLzM7S1dfe3+Hh4uPl5ujp6erx8vX19vf4+Pn5+vv9/f7NRDh5AAAACXBIWXMAABcRAAAXEQHKJvM/AAABrUlEQVRYR+WXV1MCUQxGUeyC2Av2ir2gIBbE3hWl2Bv2hgW7iKJiYdcf7U68jIanzTqjOJ6nfA/n5W6Sycp+n+RWgwRaNFHM73jjJPC2k8h8A/cqAW5F9envTo6bKYzOXiF/IlJOIrzkgP/qj7FSNHnYN8tZLZbCH/fTO01Go9FkVEOi+11PdwL3t/2Q6H4PD23jH4JE90unLAJWSzUkuh8W+PSQ6D4mxPxRVoom14l8qypeSSFOc4j8843VNQqOvQc0v37oDQp4f/g8bg8Ft/cF+Ys1lVUUKvrOkD/CStFk4/f/6/0nwk9QZwpkZSVBovttl8cCLlcPJLrf+7F/uGFIdF+74xBYdXRAovuxaSmAAhLdx4SYT+7/HNz/S40NWgp1Axdo/h6vaVy5n/D+4YkE7R/nwtw8hZnlG+ST93fQ+42HsVosBX+u/+Qx0UAEJLpfNm232Wx2Wy0kuv/d/dH97AMGIdH91Ga9TqfTN2VAovuYEPO/f78o2GUiDkU5vl8utze3KKzvez/nt52nny+cn18P/D/Vnx5J4GRGyXxVcb4EitI/JulfI5O9A0uyDmTPbf4hAAAAAElFTkSuQmCC;" vertex="1" parent="1">
          <mxGeometry x="1256" y="-351.25" width="63" height="63" as="geometry" />
        </mxCell>
        <mxCell id="_PiH-gFInOYQ3cw0sFF--17" value="nks-rms-w-3wl" style="shape=image;verticalLabelPosition=bottom;labelBackgroundColor=default;verticalAlign=top;aspect=fixed;imageAspect=0;image=data:image/png,iVBORw0KGgoAAAANSUhEUgAAAD8AAAA/CAMAAABggeDtAAAAAXNSR0IArs4c6QAAAARnQU1BAACxjwv8YQUAAAGnUExURQAAAAAAAAAAAAAAAAAAAAAAACQkJCAgIBwcHCQkJCIiIiAgIB4eHhwcHBsbGxoaGhgYGCEhIR8fHx0dHRwcHCIiIh8fHx4eHiIiIiEhISAgICQkJCQkJCIiIiYmJiAgICUlJSQkJB8fHx4eHiMjIyAgIB8fHyEhISAgICAgICMjIyIiIh4eHiEhISEhISAgIB8fHyIiIiIiIiEhIR4eHiEhISAgIB8fHyEhISQkJCMjIyAgICAgIB8fHyIiIh8fHx0dHSAgICIiIiAgICIiIiMjIx8fHyEhISEhISEhISEhISAgICEhISEhISEhISEhISAgICAgICEhISEhISIiIiIiIiEhISMjIyIiIiAgICIiIiIiIiEhIR8fHyAgICMjIyIiIiEhISEhISEhISIiIiEhISIiIiIiIiIiIiEhISEhISIiIiEhISEhISEhISEhISIiIiIiIiIiIiMjIyIiIiIiIiEhISIiIiIiIiIiIiIiIiEhISIiIiEhISEhISEhISIiIiEhISIiIiIiIiIiIiEhISIiIiEhISIiIiMjIyQkJCUlJSYmJhhwhsgAAACIdFJOUwABAgMEBgcICQ4PEBESExQVFyEjJCUpKi0uMDEyNDY3Nzk6OztAQkZHSElLTU1OUFJSU1VWVldaXV1eX2BiYmNoaGlwcXN6enyEhZGSk5SVlpebnJ6foqKsra2usLS4wMPHyMnJysrLzM7S1dfe3+Hh4uPl5ujp6erx8vX19vf4+Pn5+vv9/f7NRDh5AAAACXBIWXMAABcRAAAXEQHKJvM/AAABrUlEQVRYR+WXV1MCUQxGUeyC2Av2ir2gIBbE3hWl2Bv2hgW7iKJiYdcf7U68jIanzTqjOJ6nfA/n5W6Sycp+n+RWgwRaNFHM73jjJPC2k8h8A/cqAW5F9envTo6bKYzOXiF/IlJOIrzkgP/qj7FSNHnYN8tZLZbCH/fTO01Go9FkVEOi+11PdwL3t/2Q6H4PD23jH4JE90unLAJWSzUkuh8W+PSQ6D4mxPxRVoom14l8qypeSSFOc4j8843VNQqOvQc0v37oDQp4f/g8bg8Ft/cF+Ys1lVUUKvrOkD/CStFk4/f/6/0nwk9QZwpkZSVBovttl8cCLlcPJLrf+7F/uGFIdF+74xBYdXRAovuxaSmAAhLdx4SYT+7/HNz/S40NWgp1Axdo/h6vaVy5n/D+4YkE7R/nwtw8hZnlG+ST93fQ+42HsVosBX+u/+Qx0UAEJLpfNm232Wx2Wy0kuv/d/dH97AMGIdH91Ga9TqfTN2VAovuYEPO/f78o2GUiDkU5vl8utze3KKzvez/nt52nny+cn18P/D/Vnx5J4GRGyXxVcb4EitI/JulfI5O9A0uyDmTPbf4hAAAAAElFTkSuQmCC;" vertex="1" parent="1">
          <mxGeometry x="1463" y="-351.25" width="63" height="63" as="geometry" />
        </mxCell>
        <mxCell id="_PiH-gFInOYQ3cw0sFF--10" value="nks-rms-w-5bu" style="shape=image;verticalLabelPosition=bottom;labelBackgroundColor=default;verticalAlign=top;aspect=fixed;imageAspect=0;image=data:image/png,iVBORw0KGgoAAAANSUhEUgAAAD8AAAA/CAMAAABggeDtAAAAAXNSR0IArs4c6QAAAARnQU1BAACxjwv8YQUAAAGnUExURQAAAAAAAAAAAAAAAAAAAAAAACQkJCAgIBwcHCQkJCIiIiAgIB4eHhwcHBsbGxoaGhgYGCEhIR8fHx0dHRwcHCIiIh8fHx4eHiIiIiEhISAgICQkJCQkJCIiIiYmJiAgICUlJSQkJB8fHx4eHiMjIyAgIB8fHyEhISAgICAgICMjIyIiIh4eHiEhISEhISAgIB8fHyIiIiIiIiEhIR4eHiEhISAgIB8fHyEhISQkJCMjIyAgICAgIB8fHyIiIh8fHx0dHSAgICIiIiAgICIiIiMjIx8fHyEhISEhISEhISEhISAgICEhISEhISEhISEhISAgICAgICEhISEhISIiIiIiIiEhISMjIyIiIiAgICIiIiIiIiEhIR8fHyAgICMjIyIiIiEhISEhISEhISIiIiEhISIiIiIiIiIiIiEhISEhISIiIiEhISEhISEhISEhISIiIiIiIiIiIiMjIyIiIiIiIiEhISIiIiIiIiIiIiIiIiEhISIiIiEhISEhISEhISIiIiEhISIiIiIiIiIiIiEhISIiIiEhISIiIiMjIyQkJCUlJSYmJhhwhsgAAACIdFJOUwABAgMEBgcICQ4PEBESExQVFyEjJCUpKi0uMDEyNDY3Nzk6OztAQkZHSElLTU1OUFJSU1VWVldaXV1eX2BiYmNoaGlwcXN6enyEhZGSk5SVlpebnJ6foqKsra2usLS4wMPHyMnJysrLzM7S1dfe3+Hh4uPl5ujp6erx8vX19vf4+Pn5+vv9/f7NRDh5AAAACXBIWXMAABcRAAAXEQHKJvM/AAABrUlEQVRYR+WXV1MCUQxGUeyC2Av2ir2gIBbE3hWl2Bv2hgW7iKJiYdcf7U68jIanzTqjOJ6nfA/n5W6Sycp+n+RWgwRaNFHM73jjJPC2k8h8A/cqAW5F9envTo6bKYzOXiF/IlJOIrzkgP/qj7FSNHnYN8tZLZbCH/fTO01Go9FkVEOi+11PdwL3t/2Q6H4PD23jH4JE90unLAJWSzUkuh8W+PSQ6D4mxPxRVoom14l8qypeSSFOc4j8843VNQqOvQc0v37oDQp4f/g8bg8Ft/cF+Ys1lVUUKvrOkD/CStFk4/f/6/0nwk9QZwpkZSVBovttl8cCLlcPJLrf+7F/uGFIdF+74xBYdXRAovuxaSmAAhLdx4SYT+7/HNz/S40NWgp1Axdo/h6vaVy5n/D+4YkE7R/nwtw8hZnlG+ST93fQ+42HsVosBX+u/+Qx0UAEJLpfNm232Wx2Wy0kuv/d/dH97AMGIdH91Ga9TqfTN2VAovuYEPO/f78o2GUiDkU5vl8utze3KKzvez/nt52nny+cn18P/D/Vnx5J4GRGyXxVcb4EitI/JulfI5O9A0uyDmTPbf4hAAAAAElFTkSuQmCC;" vertex="1" parent="1">
          <mxGeometry x="1580" y="-350.25" width="63" height="63" as="geometry" />
        </mxCell>
        <mxCell id="_PiH-gFInOYQ3cw0sFF--12" value="nks-rms-w-4rm" style="shape=image;verticalLabelPosition=bottom;labelBackgroundColor=default;verticalAlign=top;aspect=fixed;imageAspect=0;image=data:image/png,iVBORw0KGgoAAAANSUhEUgAAAD8AAAA/CAMAAABggeDtAAAAAXNSR0IArs4c6QAAAARnQU1BAACxjwv8YQUAAAGnUExURQAAAAAAAAAAAAAAAAAAAAAAACQkJCAgIBwcHCQkJCIiIiAgIB4eHhwcHBsbGxoaGhgYGCEhIR8fHx0dHRwcHCIiIh8fHx4eHiIiIiEhISAgICQkJCQkJCIiIiYmJiAgICUlJSQkJB8fHx4eHiMjIyAgIB8fHyEhISAgICAgICMjIyIiIh4eHiEhISEhISAgIB8fHyIiIiIiIiEhIR4eHiEhISAgIB8fHyEhISQkJCMjIyAgICAgIB8fHyIiIh8fHx0dHSAgICIiIiAgICIiIiMjIx8fHyEhISEhISEhISEhISAgICEhISEhISEhISEhISAgICAgICEhISEhISIiIiIiIiEhISMjIyIiIiAgICIiIiIiIiEhIR8fHyAgICMjIyIiIiEhISEhISEhISIiIiEhISIiIiIiIiIiIiEhISEhISIiIiEhISEhISEhISEhISIiIiIiIiIiIiMjIyIiIiIiIiEhISIiIiIiIiIiIiIiIiEhISIiIiEhISEhISEhISIiIiEhISIiIiIiIiIiIiEhISIiIiEhISIiIiMjIyQkJCUlJSYmJhhwhsgAAACIdFJOUwABAgMEBgcICQ4PEBESExQVFyEjJCUpKi0uMDEyNDY3Nzk6OztAQkZHSElLTU1OUFJSU1VWVldaXV1eX2BiYmNoaGlwcXN6enyEhZGSk5SVlpebnJ6foqKsra2usLS4wMPHyMnJysrLzM7S1dfe3+Hh4uPl5ujp6erx8vX19vf4+Pn5+vv9/f7NRDh5AAAACXBIWXMAABcRAAAXEQHKJvM/AAABrUlEQVRYR+WXV1MCUQxGUeyC2Av2ir2gIBbE3hWl2Bv2hgW7iKJiYdcf7U68jIanzTqjOJ6nfA/n5W6Sycp+n+RWgwRaNFHM73jjJPC2k8h8A/cqAW5F9envTo6bKYzOXiF/IlJOIrzkgP/qj7FSNHnYN8tZLZbCH/fTO01Go9FkVEOi+11PdwL3t/2Q6H4PD23jH4JE90unLAJWSzUkuh8W+PSQ6D4mxPxRVoom14l8qypeSSFOc4j8843VNQqOvQc0v37oDQp4f/g8bg8Ft/cF+Ys1lVUUKvrOkD/CStFk4/f/6/0nwk9QZwpkZSVBovttl8cCLlcPJLrf+7F/uGFIdF+74xBYdXRAovuxaSmAAhLdx4SYT+7/HNz/S40NWgp1Axdo/h6vaVy5n/D+4YkE7R/nwtw8hZnlG+ST93fQ+42HsVosBX+u/+Qx0UAEJLpfNm232Wx2Wy0kuv/d/dH97AMGIdH91Ga9TqfTN2VAovuYEPO/f78o2GUiDkU5vl8utze3KKzvez/nt52nny+cn18P/D/Vnx5J4GRGyXxVcb4EitI/JulfI5O9A0uyDmTPbf4hAAAAAElFTkSuQmCC;" vertex="1" parent="1">
          <mxGeometry x="1260" y="-243.75" width="63" height="63" as="geometry" />
        </mxCell>
        <mxCell id="_PiH-gFInOYQ3cw0sFF--13" value="nks-rms-w-4on" style="shape=image;verticalLabelPosition=bottom;labelBackgroundColor=default;verticalAlign=top;aspect=fixed;imageAspect=0;image=data:image/png,iVBORw0KGgoAAAANSUhEUgAAAD8AAAA/CAMAAABggeDtAAAAAXNSR0IArs4c6QAAAARnQU1BAACxjwv8YQUAAAGnUExURQAAAAAAAAAAAAAAAAAAAAAAACQkJCAgIBwcHCQkJCIiIiAgIB4eHhwcHBsbGxoaGhgYGCEhIR8fHx0dHRwcHCIiIh8fHx4eHiIiIiEhISAgICQkJCQkJCIiIiYmJiAgICUlJSQkJB8fHx4eHiMjIyAgIB8fHyEhISAgICAgICMjIyIiIh4eHiEhISEhISAgIB8fHyIiIiIiIiEhIR4eHiEhISAgIB8fHyEhISQkJCMjIyAgICAgIB8fHyIiIh8fHx0dHSAgICIiIiAgICIiIiMjIx8fHyEhISEhISEhISEhISAgICEhISEhISEhISEhISAgICAgICEhISEhISIiIiIiIiEhISMjIyIiIiAgICIiIiIiIiEhIR8fHyAgICMjIyIiIiEhISEhISEhISIiIiEhISIiIiIiIiIiIiEhISEhISIiIiEhISEhISEhISEhISIiIiIiIiIiIiMjIyIiIiIiIiEhISIiIiIiIiIiIiIiIiEhISIiIiEhISEhISEhISIiIiEhISIiIiIiIiIiIiEhISIiIiEhISIiIiMjIyQkJCUlJSYmJhhwhsgAAACIdFJOUwABAgMEBgcICQ4PEBESExQVFyEjJCUpKi0uMDEyNDY3Nzk6OztAQkZHSElLTU1OUFJSU1VWVldaXV1eX2BiYmNoaGlwcXN6enyEhZGSk5SVlpebnJ6foqKsra2usLS4wMPHyMnJysrLzM7S1dfe3+Hh4uPl5ujp6erx8vX19vf4+Pn5+vv9/f7NRDh5AAAACXBIWXMAABcRAAAXEQHKJvM/AAABrUlEQVRYR+WXV1MCUQxGUeyC2Av2ir2gIBbE3hWl2Bv2hgW7iKJiYdcf7U68jIanzTqjOJ6nfA/n5W6Sycp+n+RWgwRaNFHM73jjJPC2k8h8A/cqAW5F9envTo6bKYzOXiF/IlJOIrzkgP/qj7FSNHnYN8tZLZbCH/fTO01Go9FkVEOi+11PdwL3t/2Q6H4PD23jH4JE90unLAJWSzUkuh8W+PSQ6D4mxPxRVoom14l8qypeSSFOc4j8843VNQqOvQc0v37oDQp4f/g8bg8Ft/cF+Ys1lVUUKvrOkD/CStFk4/f/6/0nwk9QZwpkZSVBovttl8cCLlcPJLrf+7F/uGFIdF+74xBYdXRAovuxaSmAAhLdx4SYT+7/HNz/S40NWgp1Axdo/h6vaVy5n/D+4YkE7R/nwtw8hZnlG+ST93fQ+42HsVosBX+u/+Qx0UAEJLpfNm232Wx2Wy0kuv/d/dH97AMGIdH91Ga9TqfTN2VAovuYEPO/f78o2GUiDkU5vl8utze3KKzvez/nt52nny+cn18P/D/Vnx5J4GRGyXxVcb4EitI/JulfI5O9A0uyDmTPbf4hAAAAAElFTkSuQmCC;" vertex="1" parent="1">
          <mxGeometry x="1355.5" y="-243.75" width="63" height="63" as="geometry" />
        </mxCell>
        <mxCell id="_PiH-gFInOYQ3cw0sFF--26" value="nks-pool-865224-w-3ru" style="shape=image;verticalLabelPosition=bottom;labelBackgroundColor=default;verticalAlign=top;aspect=fixed;imageAspect=0;image=data:image/png,iVBORw0KGgoAAAANSUhEUgAAAD8AAAA/CAMAAABggeDtAAAAAXNSR0IArs4c6QAAAARnQU1BAACxjwv8YQUAAAGnUExURQAAAAAAAAAAAAAAAAAAAAAAACQkJCAgIBwcHCQkJCIiIiAgIB4eHhwcHBsbGxoaGhgYGCEhIR8fHx0dHRwcHCIiIh8fHx4eHiIiIiEhISAgICQkJCQkJCIiIiYmJiAgICUlJSQkJB8fHx4eHiMjIyAgIB8fHyEhISAgICAgICMjIyIiIh4eHiEhISEhISAgIB8fHyIiIiIiIiEhIR4eHiEhISAgIB8fHyEhISQkJCMjIyAgICAgIB8fHyIiIh8fHx0dHSAgICIiIiAgICIiIiMjIx8fHyEhISEhISEhISEhISAgICEhISEhISEhISEhISAgICAgICEhISEhISIiIiIiIiEhISMjIyIiIiAgICIiIiIiIiEhIR8fHyAgICMjIyIiIiEhISEhISEhISIiIiEhISIiIiIiIiIiIiEhISEhISIiIiEhISEhISEhISEhISIiIiIiIiIiIiMjIyIiIiIiIiEhISIiIiIiIiIiIiIiIiEhISIiIiEhISEhISEhISIiIiEhISIiIiIiIiIiIiEhISIiIiEhISIiIiMjIyQkJCUlJSYmJhhwhsgAAACIdFJOUwABAgMEBgcICQ4PEBESExQVFyEjJCUpKi0uMDEyNDY3Nzk6OztAQkZHSElLTU1OUFJSU1VWVldaXV1eX2BiYmNoaGlwcXN6enyEhZGSk5SVlpebnJ6foqKsra2usLS4wMPHyMnJysrLzM7S1dfe3+Hh4uPl5ujp6erx8vX19vf4+Pn5+vv9/f7NRDh5AAAACXBIWXMAABcRAAAXEQHKJvM/AAABrUlEQVRYR+WXV1MCUQxGUeyC2Av2ir2gIBbE3hWl2Bv2hgW7iKJiYdcf7U68jIanzTqjOJ6nfA/n5W6Sycp+n+RWgwRaNFHM73jjJPC2k8h8A/cqAW5F9envTo6bKYzOXiF/IlJOIrzkgP/qj7FSNHnYN8tZLZbCH/fTO01Go9FkVEOi+11PdwL3t/2Q6H4PD23jH4JE90unLAJWSzUkuh8W+PSQ6D4mxPxRVoom14l8qypeSSFOc4j8843VNQqOvQc0v37oDQp4f/g8bg8Ft/cF+Ys1lVUUKvrOkD/CStFk4/f/6/0nwk9QZwpkZSVBovttl8cCLlcPJLrf+7F/uGFIdF+74xBYdXRAovuxaSmAAhLdx4SYT+7/HNz/S40NWgp1Axdo/h6vaVy5n/D+4YkE7R/nwtw8hZnlG+ST93fQ+42HsVosBX+u/+Qx0UAEJLpfNm232Wx2Wy0kuv/d/dH97AMGIdH91Ga9TqfTN2VAovuYEPO/f78o2GUiDkU5vl8utze3KKzvez/nt52nny+cn18P/D/Vnx5J4GRGyXxVcb4EitI/JulfI5O9A0uyDmTPbf4hAAAAAElFTkSuQmCC;" vertex="1" parent="1">
          <mxGeometry x="1463" y="-243.75" width="63" height="63" as="geometry" />
        </mxCell>
        <mxCell id="_PiH-gFInOYQ3cw0sFF--28" value="nks-rms-w-3l9" style="shape=image;verticalLabelPosition=bottom;labelBackgroundColor=default;verticalAlign=top;aspect=fixed;imageAspect=0;image=data:image/png,iVBORw0KGgoAAAANSUhEUgAAAD8AAAA/CAMAAABggeDtAAAAAXNSR0IArs4c6QAAAARnQU1BAACxjwv8YQUAAAGnUExURQAAAAAAAAAAAAAAAAAAAAAAACQkJCAgIBwcHCQkJCIiIiAgIB4eHhwcHBsbGxoaGhgYGCEhIR8fHx0dHRwcHCIiIh8fHx4eHiIiIiEhISAgICQkJCQkJCIiIiYmJiAgICUlJSQkJB8fHx4eHiMjIyAgIB8fHyEhISAgICAgICMjIyIiIh4eHiEhISEhISAgIB8fHyIiIiIiIiEhIR4eHiEhISAgIB8fHyEhISQkJCMjIyAgICAgIB8fHyIiIh8fHx0dHSAgICIiIiAgICIiIiMjIx8fHyEhISEhISEhISEhISAgICEhISEhISEhISEhISAgICAgICEhISEhISIiIiIiIiEhISMjIyIiIiAgICIiIiIiIiEhIR8fHyAgICMjIyIiIiEhISEhISEhISIiIiEhISIiIiIiIiIiIiEhISEhISIiIiEhISEhISEhISEhISIiIiIiIiIiIiMjIyIiIiIiIiEhISIiIiIiIiIiIiIiIiEhISIiIiEhISEhISEhISIiIiEhISIiIiIiIiIiIiEhISIiIiEhISIiIiMjIyQkJCUlJSYmJhhwhsgAAACIdFJOUwABAgMEBgcICQ4PEBESExQVFyEjJCUpKi0uMDEyNDY3Nzk6OztAQkZHSElLTU1OUFJSU1VWVldaXV1eX2BiYmNoaGlwcXN6enyEhZGSk5SVlpebnJ6foqKsra2usLS4wMPHyMnJysrLzM7S1dfe3+Hh4uPl5ujp6erx8vX19vf4+Pn5+vv9/f7NRDh5AAAACXBIWXMAABcRAAAXEQHKJvM/AAABrUlEQVRYR+WXV1MCUQxGUeyC2Av2ir2gIBbE3hWl2Bv2hgW7iKJiYdcf7U68jIanzTqjOJ6nfA/n5W6Sycp+n+RWgwRaNFHM73jjJPC2k8h8A/cqAW5F9envTo6bKYzOXiF/IlJOIrzkgP/qj7FSNHnYN8tZLZbCH/fTO01Go9FkVEOi+11PdwL3t/2Q6H4PD23jH4JE90unLAJWSzUkuh8W+PSQ6D4mxPxRVoom14l8qypeSSFOc4j8843VNQqOvQc0v37oDQp4f/g8bg8Ft/cF+Ys1lVUUKvrOkD/CStFk4/f/6/0nwk9QZwpkZSVBovttl8cCLlcPJLrf+7F/uGFIdF+74xBYdXRAovuxaSmAAhLdx4SYT+7/HNz/S40NWgp1Axdo/h6vaVy5n/D+4YkE7R/nwtw8hZnlG+ST93fQ+42HsVosBX+u/+Qx0UAEJLpfNm232Wx2Wy0kuv/d/dH97AMGIdH91Ga9TqfTN2VAovuYEPO/f78o2GUiDkU5vl8utze3KKzvez/nt52nny+cn18P/D/Vnx5J4GRGyXxVcb4EitI/JulfI5O9A0uyDmTPbf4hAAAAAElFTkSuQmCC;" vertex="1" parent="1">
          <mxGeometry x="1580" y="-243.75" width="63" height="63" as="geometry" />
        </mxCell>
        <mxCell id="_PiH-gFInOYQ3cw0sFF--24" value="rms-proxy" style="shape=image;verticalLabelPosition=bottom;labelBackgroundColor=default;verticalAlign=top;aspect=fixed;imageAspect=0;image=data:image/png,iVBORw0KGgoAAAANSUhEUgAAAD8AAAA/CAMAAABggeDtAAAAAXNSR0IArs4c6QAAAARnQU1BAACxjwv8YQUAAAGnUExURQAAAAAAAAAAAAAAAAAAAAAAACQkJCAgIBwcHCQkJCIiIiAgIB4eHhwcHBsbGxoaGhgYGCEhIR8fHx0dHRwcHCIiIh8fHx4eHiIiIiEhISAgICQkJCQkJCIiIiYmJiAgICUlJSQkJB8fHx4eHiMjIyAgIB8fHyEhISAgICAgICMjIyIiIh4eHiEhISEhISAgIB8fHyIiIiIiIiEhIR4eHiEhISAgIB8fHyEhISQkJCMjIyAgICAgIB8fHyIiIh8fHx0dHSAgICIiIiAgICIiIiMjIx8fHyEhISEhISEhISEhISAgICEhISEhISEhISEhISAgICAgICEhISEhISIiIiIiIiEhISMjIyIiIiAgICIiIiIiIiEhIR8fHyAgICMjIyIiIiEhISEhISEhISIiIiEhISIiIiIiIiIiIiEhISEhISIiIiEhISEhISEhISEhISIiIiIiIiIiIiMjIyIiIiIiIiEhISIiIiIiIiIiIiIiIiEhISIiIiEhISEhISEhISIiIiEhISIiIiIiIiIiIiEhISIiIiEhISIiIiMjIyQkJCUlJSYmJhhwhsgAAACIdFJOUwABAgMEBgcICQ4PEBESExQVFyEjJCUpKi0uMDEyNDY3Nzk6OztAQkZHSElLTU1OUFJSU1VWVldaXV1eX2BiYmNoaGlwcXN6enyEhZGSk5SVlpebnJ6foqKsra2usLS4wMPHyMnJysrLzM7S1dfe3+Hh4uPl5ujp6erx8vX19vf4+Pn5+vv9/f7NRDh5AAAACXBIWXMAABcRAAAXEQHKJvM/AAABrUlEQVRYR+WXV1MCUQxGUeyC2Av2ir2gIBbE3hWl2Bv2hgW7iKJiYdcf7U68jIanzTqjOJ6nfA/n5W6Sycp+n+RWgwRaNFHM73jjJPC2k8h8A/cqAW5F9envTo6bKYzOXiF/IlJOIrzkgP/qj7FSNHnYN8tZLZbCH/fTO01Go9FkVEOi+11PdwL3t/2Q6H4PD23jH4JE90unLAJWSzUkuh8W+PSQ6D4mxPxRVoom14l8qypeSSFOc4j8843VNQqOvQc0v37oDQp4f/g8bg8Ft/cF+Ys1lVUUKvrOkD/CStFk4/f/6/0nwk9QZwpkZSVBovttl8cCLlcPJLrf+7F/uGFIdF+74xBYdXRAovuxaSmAAhLdx4SYT+7/HNz/S40NWgp1Axdo/h6vaVy5n/D+4YkE7R/nwtw8hZnlG+ST93fQ+42HsVosBX+u/+Qx0UAEJLpfNm232Wx2Wy0kuv/d/dH97AMGIdH91Ga9TqfTN2VAovuYEPO/f78o2GUiDkU5vl8utze3KKzvez/nt52nny+cn18P/D/Vnx5J4GRGyXxVcb4EitI/JulfI5O9A0uyDmTPbf4hAAAAAElFTkSuQmCC;" vertex="1" parent="1">
          <mxGeometry x="1143.5" y="-296.5" width="63" height="63" as="geometry" />
        </mxCell>
        <mxCell id="_PiH-gFInOYQ3cw0sFF--117" style="edgeStyle=orthogonalEdgeStyle;rounded=0;orthogonalLoop=1;jettySize=auto;html=1;entryX=0;entryY=0.5;entryDx=0;entryDy=0;fontSize=24;" edge="1" parent="1" source="_PiH-gFInOYQ3cw0sFF--80" target="_PiH-gFInOYQ3cw0sFF--90">
          <mxGeometry relative="1" as="geometry">
            <Array as="points">
              <mxPoint x="-173" y="-1064" />
            </Array>
          </mxGeometry>
        </mxCell>
        <mxCell id="_PiH-gFInOYQ3cw0sFF--80" value="IGW" style="shape=image;verticalLabelPosition=bottom;labelBackgroundColor=default;verticalAlign=top;aspect=fixed;imageAspect=0;image=data:image/png,iVBORw0KGgoAAAANSUhEUgAAADIAAAAsCAYAAAAn4+taAAAAAXNSR0IArs4c6QAAAARnQU1BAACxjwv8YQUAAAAJcEhZcwAAFxEAABcRAcom8z8AAAfDSURBVGhD7ZlrjFXVFceHprUQW0FEEbizH2efc+9ldGaqlAbsY0AUMCZE8EPVCPFR/WD6MFGbtB86TZs0irRpwyebpo+krZpI/AAoJEqK0qhYq2njE8RnZZgCKnTUGWFuf2ufdW8Z595hwM7MNe0/2bln9uus/3rttc+0/M+gsKAwpa2t7XM8Tsp7PkHosnZy5sINqfX3BOd2BOt2ps5vCtb/MITQqtOaG2maFiCwpehDpRTSSuaTCiTiczEJFYjtCTYs1+nNiUKhMCVYu7WUpJXE2H6eb8+c+1pq7YLU++sh8XwJMql1PdKny5oPCLpatM/vQGbtNdpdQ9FgJ2tfEKIQuXfevHmfoVtip1GbGCDkHeJC3tpHl6fpZ7V7CJjzfXG7xNoBYgc3cy/Tdmt7ObFuFxZ7iecd1tqzddn4Ai3fWYZIMG5zpVJfo8GYb0rcBCyXWy//jc/Wxd8i47jmoSRJjC4bX0DgVtE2rtXrvZ+v3TWQhk9hzgMx6CWTeX9x6lwXVlosTeKJ3x9nQsrYfROW4UrWusS4VzQ7PU1bhntMkyTgnCsh/K/yLEbz/mpdNgS43MposYkkIsASl+LnvRIr4iYQ+6v4O5Z4WwjGPue6mVrX9SByRVMQEWTefwlr3AeBd0X4mHIhgBs9iqBX6rS6aCoiVRStLScmWSIHYNKafFFcTIcaoimJnAxOlsjMmTNPLXnfrglkKefYFzqJTx0ef4jrnQgRqRCIufXE5R7WDOQuHFP5h2TANymXfidJR6ePH0ZLhJrutOCSnyHwB7XEYm0v614kwTxPctkrfdUxrHR3yZacLj9BUIIUjfGZzeZyuE3V3hExGiJkxplU0tR0mgWNu98bc/m59DMcs2F7e/vp7HUJhH5NpXA0HgkQTI1pk/FRAaHP4qz4Adr6Gyf325j9ME3MfFfR+w6dVhfHIxIPVdGuCOZcH3tep0MNwbwVYiFZgxxPYc0zdagxRFB88xlZlAvk3pdyI5o51+BBArFhCobIiMGeGn91xoGKggYRcLX0lUql2aK8rq6uT2dZNofDl3PYunil0JoPmRZVjwPc7CfS1xCk1+kI8HiuLb83eH8LblDMCtmczCYr2ewRqaPY8DAvXqLLhkBcRIn0FIvFGdpdxSSUskXqOQjfJx0iIPNRlnsQEgl7SxH6AS2v3ax7InXpUp17u7rYK3X2/g/Q0I0iBFp/jzPkMu2uQXybjZ+MJna82BjksaK+2EST9H9b9kDg/SGYC44dI96WQPAd9j+CVa+QPRFuuQjH/O1YMEX4g+LOaP27tHXiCfS9JDFKO5fnAYgMFG1ySRSqHsjha2P1a91DYmbtHoKMwjJq3LpB/PWfCNJD26etB4HeZUzGj8Jyf20cH6choGQndyC16XmyXzwz8v0exo0CvwdZt7vdmNPz+49jX3dY3LQNj8Fyu6Ky/QixVS3jE+O3dnd3f0q7h4A5N8eNRFjih5f00d7T1ocQ3CwjkcGPjPNr+6tEggnnx/2GE/kHTZT0hqyJrmz8b5g6qbW1dTZEdsf3J8m1sr4uePG3NAb+VawTAwTl5xl7JN4QjdsWWlvPKVEVSykjTZ4R9hZ5EZY5wPOi6rj+SjoVqxwhW10le+LOy4YQIbZ4Pkz/3aTon4dWt0beK3NJRPMZG2BvLnW28XcDyRxM/LsG+x7uF2tIl9MXLChMoZD8KmMblWh/cGGFLhsCLLIqCoZA5XL5DO2uQYK6jCIgtEH+FouoO++UxMKvPO8rz549bC3KWxeDnSpA5NLu+qBAXIgm9uTpNwbaAbSzV14QCZJR0OZNOn0YIDLiOSKWkIsXVhmUNC5z8Pc/Qqg7Pyjtb3Gr9RLcuiQiM/4i3n0oXvys/ZF2j4y5ZBhe+AvxUzQoPn+Utp+Xb+CFXTqtLo5HRD5YsNfv8/PAvy+ZUocawntzOWt6c0XanfWsNSI6bee0cgjziJcvo6FR3b+PR0RQnFWcAYHNkUzuqptkXZxfqcQSpSO6ub3MG/cHlJd/U6PSEPeLm4w1EGhUZXxHR8epWH0twvVJYRjXiBvHLzF2F61XMlytaKQKlpNel489RkukCl/w89H4T4nLF8TVEFiEFlL97PEqz7/kcnehTh8/nCiRKjj9J0uKlhjEpRbPDeEc/Xj+8ZFlhTn4JLnbLpSXaPeIOFkiYwI5wBDoLjlL5NOP+i+lh91IG/EDNuuOG+zjAjLUV4SAnN4q0Guk4WchMqiZ4wjC3qzTh6EpiJSNmcW58ZwKvFvcJE3nyJ3gTP1EtCGe7M5RvSYrddkQHFPGTxwRSvDviBBkj4NUb4u0uwZJmQj4J7EWWWY7BeR5cvWU8loaJ/VcFHHbxBPxWv1au6Wlu6V+9atksZi0Dyng+qWI0xYrXyXyzmgP0f86COR4H0Gr2/R/H8OA1W7TwlHuG70Uf9wzqFirzbq3KPFfJ66ekiusLhtfcLX9hrpWHzGwSrtriEWdcU/LaYvAG9H4WeT/aVKJfrR1dnZOa3SnGXMg2FQ0+edYnHFvoN0ajDk/+r7c2Z1/TBIBcw6VbFisy5oTcobgYo9LuXxMuqV8TijjJX643jr3dZ3e3CjOmjWDrPQ9XOwhiLwGsR6e/0Kgr8e92nXaJwf4+ilt1p4tVSftNO3+P8YOLS3/Blt97ASPF0zhAAAAAElFTkSuQmCC;rotation=0;" vertex="1" parent="1">
          <mxGeometry x="-198.5" y="-870" width="50" height="44" as="geometry" />
        </mxCell>
        <mxCell id="_PiH-gFInOYQ3cw0sFF--92" style="edgeStyle=orthogonalEdgeStyle;rounded=0;orthogonalLoop=1;jettySize=auto;html=1;fontSize=14;" edge="1" parent="1" source="_PiH-gFInOYQ3cw0sFF--90" target="_PiH-gFInOYQ3cw0sFF--80">
          <mxGeometry relative="1" as="geometry" />
        </mxCell>
        <mxCell id="_PiH-gFInOYQ3cw0sFF--94" style="edgeStyle=orthogonalEdgeStyle;rounded=0;orthogonalLoop=1;jettySize=auto;html=1;entryX=0.5;entryY=0;entryDx=0;entryDy=0;fontSize=14;" edge="1" parent="1" source="_PiH-gFInOYQ3cw0sFF--90" target="_PiH-gFInOYQ3cw0sFF--75">
          <mxGeometry relative="1" as="geometry" />
        </mxCell>
        <mxCell id="_PiH-gFInOYQ3cw0sFF--90" value="" style="shape=image;verticalLabelPosition=bottom;labelBackgroundColor=default;verticalAlign=top;aspect=fixed;imageAspect=0;image=data:image/png,iVBORw0KGgoAAAANSUhEUgAAAH0AAABHCAYAAAAqYUjuAAAAAXNSR0IArs4c6QAAAARnQU1BAACxjwv8YQUAAAAJcEhZcwAAFxEAABcRAcom8z8AABGFSURBVHhe7d0L6J3nXQfwbusu4tzYTadzDu106NiUTWYFQXFqQXFzbAOFtXOCE8tkQ9sKVkEEJ5h24lDcqHhr3WBUp2yIbdLm0jZN700vadKkTZM2vSVNmqRpkuZy/H5en1/35uUk+ed/yf//T84Pfpxz3vd5n+f3/L6/2/O87znnnAlNaEITOjNoNBqdG35j+O3hHwr/yNGjR8/z2j477vy57ZIJLUYKqO8O/0r4D8JfDS8Lrz9y5Mj2Q4cO7Q+j/YcPH97ueDv/lfDnwq47r3U1oYVMAeqd4d8LXx1+4KWXXorzjkb79+8f7dy5c/Tkk0+OtmzZMnr00UdHjzzySPfqs+POa4cOHjyYy4/er598/Gxef7ANMaGFQgHlveG/DT8U7x3Fm0dPPfXUaN26daO77rprdNttt3Xs/dq1a0cPPPDA6MEHH+xefR62cZ3rEwVGDCf9rgt/KfwTbcgJzRfFM+XmK8M7ALRjx47RfffdN7r99ts7BipvBqBzvHnXrl2j559/frR79+7uFTvuvHabN2/urrvjjju6Pu6///7unP5jTDsy1l+Hf7iJMKHTRQm5rwz/dpTPAzuw7rzzztGaNWs60IXs5557brR3797Rvn37Ri+++GIXug8cONBxwvfLXMec10571zEE/QBdBND/008/LfqX53+aHE2kCc0lRdk/EL4qfJi33nPPPaPVq1d3IVlu3rNnTwdcgSw8C/k8tVj4L65j2mDtGYPr9aO/ShXGMZ5xjU+OAP/2JtqE5oKi5PeHV/G2xx57rAPh3nvvHW3btq0Dh6cW0H1wc41LTkja4LqGAVQk0C+gGZXxjGv8RivI1USc0GxSFPvT4fsAowij+I0bN3ZhmEcOwZ4plQHoT7/6N46a4OGHH+7GJ4d24XtzyQebqBM6EUVZllgfC18e/vvwP4f/NfyPYQXaxeEPRaE/l9f1vI+nybGPP/74y97NIwvstOtAmy3SX9/zjWfcrVu3djWEcG9s8oXf16Y2oT5FMW8I/1b4vygqytzb9Fte0z5162UK35ZjTxfgCio59oUXXujybnl3/7q5oL7XG1exJ60wQMCjyLA6/I421QlFJ6+LQoB9e8A8BFA5Uoi8++67u/VxMWAds4a25Hr22We7Kto574fhfK4BLzIO8I3L4wH/xBNPdB5vmdfa2NB5XZv22UtRxI+Gv0YpPFQlfOutt3bgAnPTpk1duObBlkWMQfiUsxkFD7cUAzgvYzA8HwDzQX3ghXpLu1tuuaUr7jLPl8IXt6mfnRRwfiFKWEtZwKUcHsuDt2/f/vJaGlNinwHsVbGmegb26fbu41EBT26ybdiwoSvu2nJuc/g9TQVnF2XiblxsAZC8x7sBb+OkQBamy3OPx0Aupuz58vA+mRN5yC56MUwpSVRq5/83/IXwR8PvjXF/Xw6f2Zs5meBPZbIbeENtafbX032vBWLaTpkXApGD3OSv5Zy0JL8L85WGzDF8IO3vCf9dWF1z5t3Bi07emomtpBR5G+DzUXGfDjJH0aiAd/eOkVdRqhZRmzzzzDOdEaDM237DkvBPNpUtfspk/sLkahNFhcvDAU5B5dlnAplHAV+hXq3CyKsYBXzdxVPlO9+u3ZqXP49u3tpUtzgpE3l/lLBTpX3TTTd1OdydLCGdh59JgBcV8KJX1SEMgJEzAvN3p06VzwCkgFp+Nn3cHP75psLFRxH+qxQhrCveTNbEKcEEz2QC/tAAzLtvALWHb6kqCvJ853Pds+nis02Ni4ciuDtgm1TnJsSyLckqrFPI2URDAxDp5H5RD/j0I/8L+/b0017Bd1lT58KnzPHVEfjiTPCgXM7L62bImVS4TZf6BkAf5fnyu5BvOet92rlla6n3jvAbmnoXDmUu52YCboZ8PvxP4a1AFtpVsSbFss9GLx9HdICBTyd0Q0e83C6lXA/4nAf8prC1/l+FPx5+V1P7/FGE+LXwf4R3mZCQpWLl5YoUwrPmKt4mdCwV8PJ5hfuHHnqoC/d2K+V9BaDIgKLnu8J/Gv7+BsHpowz6veEvR+jdee2eKQNyVaRAt49e1TqhJ6CPJ3qpcM/rLWsBXumRTutZP6kSRefA/0iDY+4pg3mWfLnBAUsoRcj69eu7GyXCVIX0PuCMY0LjiW76Xi86Kn7p0pLO7h4DUBjL/XSba/aGv9BgmTvKIB54WENQlujGiXAkjNdNkwLbBCYePnUq4OkMV74XLTmRMG+jR+hX8Fkd5Zq5vZuXzr87/O8EtL6s24jyEKEqd088e+ZEd7jA5/0cimPxfM8Y0L9wn3Y7w7/YYJpdSsefIpCK3C6bPM76CEOo6YB90UUXja677rr2aUJDoks6xcCvsC+yupsntToXWhF+U4Nqdigdvj6d3yHUAFxoZ2U8vAAn4KkAji644ILR1Vd7yGR65AbGlVde2T4tHjLnUzH2Ah/wVeW7l8Hb1VI5fyR8YYNrdigd/nIGPFBPgBrQwCyvAJ8OzRR01+pjsdF05w14Tsbb5XQVPeAZQzC4JvxdDbKZUzr7S/lale4BAXvpBi4vny5NQD814lzl7Sp7hd3KlSu7vZGcezg8e/fo09l/A72q9QLdsZZTpkXDyVvyXXbZZV2hInTL+dixce2c04f3eBgyK/z3+6ivJRU5fs011xwzXrVxbaWP6udkgDlX/ei7P54+HNNHncdTJaBzMqCrpzyQIvJ6TCvHhfifbZDNnNLZTUI50IX4ums2F6A7tmTJkk4pQCwlOs4YkNcrrrhidMkll3THvcf1mBLy3nUXXnjhMf1ceumlrcX/k2PGo3z99ftxTHttHNcHNuawH1RyVrv6XHJff/31XT+OkavknioV6LDg6UC3caPGavRLDbKZUwZbZc148803d4WDZYOdI8fmAnQ89EjHhoouAMYRhQOt3w/lD8csYMYVVq53rm9MaNy4vNixodxkHso9lGGqBHTh3YpJIa22qocy2vkPN8hmTunsWl6tcqc4ExNeWFwrIrpBT5WGky/Qed6QAACgPh0P9KVLl3bHh2Ah4PRBKNCHYKEac3iu+u8binbj5B4no8/TAb1fyIm29klWrVrVRd9EABs1H2qQzZzS2eUB/Sirsja0/Vq7cIQgDD5V8IeTL9DHed045Z0MdOeHDJy+8Xg/LlSjcYaGKmKUnCV3PwUUV7ToG07JNlWiV9wv4hRvou6yZcs6LHJ+bfidDbKZUzo7P5b0ghsBy5cv7wZzB8iyodbqBJJvToWGk58t0CvUFsBDHnr6OA9FABtnEEM5ywiG4/S5H3W0nSrowKZXkVZktVSWXut7dFKuNuGvpPmrG2Qzp3T2mnjyUsBaIqgYGQBrq00aAhGMgFP1+uHkZwv04x0fRwCZLdDHyT2OtD0Z6HRIl3TOqWpTBuByuTyuMIRDdO1pm482uGaP0umv6lxoN5iHJGzF8nj5pf8s+1SBH05+tkA/FRBmA3Tk81QrcW1PBDq90R/AFcucSki3rKR/kfaGG27oirjW/j/Ds7cxUxTLek06/pJBrAvlTYPai2d58gpL7AOPT0TDyU8X9HEFm+MA02ef3JrsH5st0EuW4XjImH0q2cbREHB1k2iqX8/TWZ7deOONXVGtik973x6aux9EiExvzADfJJzHmhURwj1B5Bihp4CvUG8SxyOTnwno5dEUKI/3rxONnAOqa2tjZJhfZwt0sujLcWPVmOP6r5qj2vSpwnrfw6XR+gKFecnl0ml0uzPG8RsNnrmjyOWbK1dHuKMKOQIA3z1eu3UU0gfeJI5HwmEfANcOjxXVxsaQ6riNleF1gKBYiq+NF2P0yflxRob0Pe7cieTUn7GKXT8c0+eSqz8nDkJf9FZrcc5kHitWrOiKaFG2td0SwD/eYJl7yrrwtRn0D8ObCSDXeLKjvJ4xCEus9WTePqHvED2Vl9OftMmZOJa1OEdq7fyYwwcaHKeXMr4vKPpNtY1ykIpSnrc9KCyx1pN5+4S+Q0CnR+Da/FIo02dbh+8Lfyvsy4+zX7SdKqVwe18E2SZs8Xbf3SJobdVOvH1qREcV2kVLeZynN/19M/zmpvKFQRHo31TttgU91cHbaw0/8fapER3RodDOaSzN7IkwhvBVTdULhyLUxwiumFNwqO55vqJupnv0ZwPRDY+mK6Gd7hSKPL2dX9JUvXAocqnq1xAa6JYXtUdfYR7wrHkC/rFEH/2qXWhXxPFyBbLz4d9tql5YFME+FT4sF9m8UckL8/XQRW3VToA/luiDQ9CPyMjLRUrOw3Fy/sno62eamhcWRbDvCV9rIjzdzpF1ZQHP4wv48vqzmRg+HdQyjX5ERl5Of3bdWlr8n/D8V+zHowj34+FNChJ3gFTzgDcRO3aWcnWDRpsCH1MCPhvIPIHNAQBOJ8I6B1EX2Vu3Nk8798k/09S7cClCujnznPzEWoWp2qq1pWhywpiJWpOaNAOoCIAppLhvFAuJyFOy4XHyDrnamaP5mj8PpxM3r4T1upOJ0n5ZXhbHDxFmgjYRdgFeBSrH19eXeb28JeTzfAYg55cRYJEAl0EMI8J8UgFY4JEPk7Xk7Rux1+JqZ47ma/51uxTgoqO0qILPGP5Q4Pym0sVBmbDfT9tMOXbrAM+K7SW7D8zzhTPbuCYun7F4isAmzgv6EYESy5vmg4Bt7AK7wGO0ZGXAXnEZMsPH3lcbexjmzLvdPRPS7XGIivSQcdwjX5gV+8kogn8g7Iv1HaD2kYHvBoKvNfsiPgv3vBcjYPEMgTJEA4opQ6BESqZsSj/dXm88BsdjRSHyMEzyMdwhA080cx77bD7mVWDL2yKgm1ZSIYPInA6FL8+Qr2pqXHwU4V+fSfxxeAvlmbxdO2HMnSzezxgYgXWp+8++JKkOYBS2dRmC64DPYyj9dAGv/75381rgABSA5FNtm1PJa9+cEWPLLuw943Ze5HMNz+YE5mucsJD+uQz7iqa+xU2ZzHvCV4S7Z3YpEJgmLO9TgKqVMWCfGYSowBsojJJ5DaX3vZ4HzjZFzg5szLulF97N8HiyqMQwhWUG6+YIucksN5sTYMmOnffdAed5trnaddNfI/8QMTffQJ1vysT8sMFnwn6jZkN57DBH8iiKVvGXInlJf/mn3XD5lz6bDqdHrscVyofeTR6hmWcDjteW4cnV0pVzABayi8kvomnP2MndxvMk6+fT/1uais5cynz9GtW7wueHGcEXc+xf8npt2HNfX2vv98mdtfwTGSid8oV85xjK0PPLAIqH1D+HtXed68uzga34AmZ5N8OrFYmbIq2v5eEvhlenjx25fj9ZcBkOTp9Hcn53xnosbb8e/s3w2f2nANHfK8L+futV7fWVUYoc9zwQhEvKFiopX66s5R/wK0KU91M4LkMYsuMFcgPl5WjDs6vK5pnSi3qD4QnjcjSKfN8Od18ezEfPEr47r5/Mqx8F8gd+fgT4y2FGcXHO+TWuN+d18vdeJ6Io6SPhdVFUFz4r5yv8rP2Bz/Or2u8v9xgBIBnCkB13XrtaTkkbIkh5NrAtqYRrBuf7Y9pGHl8aBObbmpgTmm2Kcv07xNeFYUABXE4Fvhxqu1fVDCgGALRaMvFYYDIGr312XjsG4zrLKV7MuORfYNeSyvHIgDclUvgzvsW7rFosFGV7Pu93wt1XNYFW4NcDmipinlkbQKIAQ6j1f7HPjuNaTlk3qxmkEasGS0qg6wtl3F3hq5IGfqyJNKHTRVG8n9D8s3D3ULnwLMfbswa+8G8pVcsmhtBf+2NebHdQlFAjqK4B7XrRwzWiRQN7T16+kdcLmggTmi8KCOeFfz98fcLtQUWZfMtzFV2WSMIyMI/HjAPg1toMR6hX0DWwN4YVYx/Ox0nhtZAogLwp/MGA80fhpTGAbTGAPanID1cFr3BT3TOKKvKAW+fy6g/07Yj514V/CP96eP5/j3VCJ6eAf27Aelte/UuUf3D8m7BnxZfmmF2vVeGV4RvC7gv4x8c/CX8ibNfwta2rCU3oTKFzzvk/bVoTGSuh0l8AAAAASUVORK5CYII=;" vertex="1" parent="1">
          <mxGeometry x="351" y="-1100" width="125" height="71" as="geometry" />
        </mxCell>
        <mxCell id="_PiH-gFInOYQ3cw0sFF--105" value="" style="line;strokeWidth=4;html=1;perimeter=backbonePerimeter;points=[];outlineConnect=0;fontSize=14;" vertex="1" parent="1">
          <mxGeometry x="-600" y="-510" width="900" height="10" as="geometry" />
        </mxCell>
        <mxCell id="_PiH-gFInOYQ3cw0sFF--107" value="Public Zone" style="text;strokeColor=none;fillColor=#99FF99;html=1;fontSize=24;fontStyle=1;verticalAlign=middle;align=center;" vertex="1" parent="1">
          <mxGeometry x="115" y="-920" width="185" height="50" as="geometry" />
        </mxCell>
        <mxCell id="_PiH-gFInOYQ3cw0sFF--108" value="Public Zone" style="text;strokeColor=none;fillColor=#99FF99;html=1;fontSize=24;fontStyle=1;verticalAlign=middle;align=center;" vertex="1" parent="1">
          <mxGeometry x="480" y="-920" width="185" height="50" as="geometry" />
        </mxCell>
        <mxCell id="_PiH-gFInOYQ3cw0sFF--109" value="Private Zone" style="text;strokeColor=none;fillColor=#FF9999;html=1;fontSize=24;fontStyle=1;verticalAlign=middle;align=center;" vertex="1" parent="1">
          <mxGeometry x="115" y="-503.5" width="185" height="50" as="geometry" />
        </mxCell>
        <mxCell id="_PiH-gFInOYQ3cw0sFF--110" value="Private Zone" style="text;strokeColor=none;fillColor=#FF9999;html=1;fontSize=24;fontStyle=1;verticalAlign=middle;align=center;" vertex="1" parent="1">
          <mxGeometry x="480" y="-503.5" width="185" height="50" as="geometry" />
        </mxCell>
        <mxCell id="_PiH-gFInOYQ3cw0sFF--112" value="" style="line;strokeWidth=4;html=1;perimeter=backbonePerimeter;points=[];outlineConnect=0;fontSize=14;" vertex="1" parent="1">
          <mxGeometry x="480" y="-510" width="1240" height="10" as="geometry" />
        </mxCell>
        <mxCell id="_PiH-gFInOYQ3cw0sFF--119" value="NGW" style="shape=image;verticalLabelPosition=bottom;labelBackgroundColor=default;verticalAlign=top;aspect=fixed;imageAspect=0;image=data:image/png,iVBORw0KGgoAAAANSUhEUgAAADIAAAAsCAYAAAAn4+taAAAAAXNSR0IArs4c6QAAAARnQU1BAACxjwv8YQUAAAAJcEhZcwAAFxEAABcRAcom8z8AAAfDSURBVGhD7ZlrjFXVFceHprUQW0FEEbizH2efc+9ldGaqlAbsY0AUMCZE8EPVCPFR/WD6MFGbtB86TZs0irRpwyebpo+krZpI/AAoJEqK0qhYq2njE8RnZZgCKnTUGWFuf2ufdW8Z595hwM7MNe0/2bln9uus/3rttc+0/M+gsKAwpa2t7XM8Tsp7PkHosnZy5sINqfX3BOd2BOt2ps5vCtb/MITQqtOaG2maFiCwpehDpRTSSuaTCiTiczEJFYjtCTYs1+nNiUKhMCVYu7WUpJXE2H6eb8+c+1pq7YLU++sh8XwJMql1PdKny5oPCLpatM/vQGbtNdpdQ9FgJ2tfEKIQuXfevHmfoVtip1GbGCDkHeJC3tpHl6fpZ7V7CJjzfXG7xNoBYgc3cy/Tdmt7ObFuFxZ7iecd1tqzddn4Ai3fWYZIMG5zpVJfo8GYb0rcBCyXWy//jc/Wxd8i47jmoSRJjC4bX0DgVtE2rtXrvZ+v3TWQhk9hzgMx6CWTeX9x6lwXVlosTeKJ3x9nQsrYfROW4UrWusS4VzQ7PU1bhntMkyTgnCsh/K/yLEbz/mpdNgS43MposYkkIsASl+LnvRIr4iYQ+6v4O5Z4WwjGPue6mVrX9SByRVMQEWTefwlr3AeBd0X4mHIhgBs9iqBX6rS6aCoiVRStLScmWSIHYNKafFFcTIcaoimJnAxOlsjMmTNPLXnfrglkKefYFzqJTx0ef4jrnQgRqRCIufXE5R7WDOQuHFP5h2TANymXfidJR6ePH0ZLhJrutOCSnyHwB7XEYm0v614kwTxPctkrfdUxrHR3yZacLj9BUIIUjfGZzeZyuE3V3hExGiJkxplU0tR0mgWNu98bc/m59DMcs2F7e/vp7HUJhH5NpXA0HgkQTI1pk/FRAaHP4qz4Adr6Gyf325j9ME3MfFfR+w6dVhfHIxIPVdGuCOZcH3tep0MNwbwVYiFZgxxPYc0zdagxRFB88xlZlAvk3pdyI5o51+BBArFhCobIiMGeGn91xoGKggYRcLX0lUql2aK8rq6uT2dZNofDl3PYunil0JoPmRZVjwPc7CfS1xCk1+kI8HiuLb83eH8LblDMCtmczCYr2ewRqaPY8DAvXqLLhkBcRIn0FIvFGdpdxSSUskXqOQjfJx0iIPNRlnsQEgl7SxH6AS2v3ax7InXpUp17u7rYK3X2/g/Q0I0iBFp/jzPkMu2uQXybjZ+MJna82BjksaK+2EST9H9b9kDg/SGYC44dI96WQPAd9j+CVa+QPRFuuQjH/O1YMEX4g+LOaP27tHXiCfS9JDFKO5fnAYgMFG1ySRSqHsjha2P1a91DYmbtHoKMwjJq3LpB/PWfCNJD26etB4HeZUzGj8Jyf20cH6choGQndyC16XmyXzwz8v0exo0CvwdZt7vdmNPz+49jX3dY3LQNj8Fyu6Ky/QixVS3jE+O3dnd3f0q7h4A5N8eNRFjih5f00d7T1ocQ3CwjkcGPjPNr+6tEggnnx/2GE/kHTZT0hqyJrmz8b5g6qbW1dTZEdsf3J8m1sr4uePG3NAb+VawTAwTl5xl7JN4QjdsWWlvPKVEVSykjTZ4R9hZ5EZY5wPOi6rj+SjoVqxwhW10le+LOy4YQIbZ4Pkz/3aTon4dWt0beK3NJRPMZG2BvLnW28XcDyRxM/LsG+x7uF2tIl9MXLChMoZD8KmMblWh/cGGFLhsCLLIqCoZA5XL5DO2uQYK6jCIgtEH+FouoO++UxMKvPO8rz549bC3KWxeDnSpA5NLu+qBAXIgm9uTpNwbaAbSzV14QCZJR0OZNOn0YIDLiOSKWkIsXVhmUNC5z8Pc/Qqg7Pyjtb3Gr9RLcuiQiM/4i3n0oXvys/ZF2j4y5ZBhe+AvxUzQoPn+Utp+Xb+CFXTqtLo5HRD5YsNfv8/PAvy+ZUocawntzOWt6c0XanfWsNSI6bee0cgjziJcvo6FR3b+PR0RQnFWcAYHNkUzuqptkXZxfqcQSpSO6ub3MG/cHlJd/U6PSEPeLm4w1EGhUZXxHR8epWH0twvVJYRjXiBvHLzF2F61XMlytaKQKlpNel489RkukCl/w89H4T4nLF8TVEFiEFlL97PEqz7/kcnehTh8/nCiRKjj9J0uKlhjEpRbPDeEc/Xj+8ZFlhTn4JLnbLpSXaPeIOFkiYwI5wBDoLjlL5NOP+i+lh91IG/EDNuuOG+zjAjLUV4SAnN4q0Guk4WchMqiZ4wjC3qzTh6EpiJSNmcW58ZwKvFvcJE3nyJ3gTP1EtCGe7M5RvSYrddkQHFPGTxwRSvDviBBkj4NUb4u0uwZJmQj4J7EWWWY7BeR5cvWU8loaJ/VcFHHbxBPxWv1au6Wlu6V+9atksZi0Dyng+qWI0xYrXyXyzmgP0f86COR4H0Gr2/R/H8OA1W7TwlHuG70Uf9wzqFirzbq3KPFfJ66ekiusLhtfcLX9hrpWHzGwSrtriEWdcU/LaYvAG9H4WeT/aVKJfrR1dnZOa3SnGXMg2FQ0+edYnHFvoN0ajDk/+r7c2Z1/TBIBcw6VbFisy5oTcobgYo9LuXxMuqV8TijjJX643jr3dZ3e3CjOmjWDrPQ9XOwhiLwGsR6e/0Kgr8e92nXaJwf4+ilt1p4tVSftNO3+P8YOLS3/Blt97ASPF0zhAAAAAElFTkSuQmCC;rotation=0;" vertex="1" parent="1">
          <mxGeometry x="250" y="-290" width="50" height="44" as="geometry" />
        </mxCell>
        <mxCell id="_PiH-gFInOYQ3cw0sFF--120" value="NGW" style="shape=image;verticalLabelPosition=bottom;labelBackgroundColor=default;verticalAlign=top;aspect=fixed;imageAspect=0;image=data:image/png,iVBORw0KGgoAAAANSUhEUgAAADIAAAAsCAYAAAAn4+taAAAAAXNSR0IArs4c6QAAAARnQU1BAACxjwv8YQUAAAAJcEhZcwAAFxEAABcRAcom8z8AAAfDSURBVGhD7ZlrjFXVFceHprUQW0FEEbizH2efc+9ldGaqlAbsY0AUMCZE8EPVCPFR/WD6MFGbtB86TZs0irRpwyebpo+krZpI/AAoJEqK0qhYq2njE8RnZZgCKnTUGWFuf2ufdW8Z595hwM7MNe0/2bln9uus/3rttc+0/M+gsKAwpa2t7XM8Tsp7PkHosnZy5sINqfX3BOd2BOt2ps5vCtb/MITQqtOaG2maFiCwpehDpRTSSuaTCiTiczEJFYjtCTYs1+nNiUKhMCVYu7WUpJXE2H6eb8+c+1pq7YLU++sh8XwJMql1PdKny5oPCLpatM/vQGbtNdpdQ9FgJ2tfEKIQuXfevHmfoVtip1GbGCDkHeJC3tpHl6fpZ7V7CJjzfXG7xNoBYgc3cy/Tdmt7ObFuFxZ7iecd1tqzddn4Ai3fWYZIMG5zpVJfo8GYb0rcBCyXWy//jc/Wxd8i47jmoSRJjC4bX0DgVtE2rtXrvZ+v3TWQhk9hzgMx6CWTeX9x6lwXVlosTeKJ3x9nQsrYfROW4UrWusS4VzQ7PU1bhntMkyTgnCsh/K/yLEbz/mpdNgS43MposYkkIsASl+LnvRIr4iYQ+6v4O5Z4WwjGPue6mVrX9SByRVMQEWTefwlr3AeBd0X4mHIhgBs9iqBX6rS6aCoiVRStLScmWSIHYNKafFFcTIcaoimJnAxOlsjMmTNPLXnfrglkKefYFzqJTx0ef4jrnQgRqRCIufXE5R7WDOQuHFP5h2TANymXfidJR6ePH0ZLhJrutOCSnyHwB7XEYm0v614kwTxPctkrfdUxrHR3yZacLj9BUIIUjfGZzeZyuE3V3hExGiJkxplU0tR0mgWNu98bc/m59DMcs2F7e/vp7HUJhH5NpXA0HgkQTI1pk/FRAaHP4qz4Adr6Gyf325j9ME3MfFfR+w6dVhfHIxIPVdGuCOZcH3tep0MNwbwVYiFZgxxPYc0zdagxRFB88xlZlAvk3pdyI5o51+BBArFhCobIiMGeGn91xoGKggYRcLX0lUql2aK8rq6uT2dZNofDl3PYunil0JoPmRZVjwPc7CfS1xCk1+kI8HiuLb83eH8LblDMCtmczCYr2ewRqaPY8DAvXqLLhkBcRIn0FIvFGdpdxSSUskXqOQjfJx0iIPNRlnsQEgl7SxH6AS2v3ax7InXpUp17u7rYK3X2/g/Q0I0iBFp/jzPkMu2uQXybjZ+MJna82BjksaK+2EST9H9b9kDg/SGYC44dI96WQPAd9j+CVa+QPRFuuQjH/O1YMEX4g+LOaP27tHXiCfS9JDFKO5fnAYgMFG1ySRSqHsjha2P1a91DYmbtHoKMwjJq3LpB/PWfCNJD26etB4HeZUzGj8Jyf20cH6choGQndyC16XmyXzwz8v0exo0CvwdZt7vdmNPz+49jX3dY3LQNj8Fyu6Ky/QixVS3jE+O3dnd3f0q7h4A5N8eNRFjih5f00d7T1ocQ3CwjkcGPjPNr+6tEggnnx/2GE/kHTZT0hqyJrmz8b5g6qbW1dTZEdsf3J8m1sr4uePG3NAb+VawTAwTl5xl7JN4QjdsWWlvPKVEVSykjTZ4R9hZ5EZY5wPOi6rj+SjoVqxwhW10le+LOy4YQIbZ4Pkz/3aTon4dWt0beK3NJRPMZG2BvLnW28XcDyRxM/LsG+x7uF2tIl9MXLChMoZD8KmMblWh/cGGFLhsCLLIqCoZA5XL5DO2uQYK6jCIgtEH+FouoO++UxMKvPO8rz549bC3KWxeDnSpA5NLu+qBAXIgm9uTpNwbaAbSzV14QCZJR0OZNOn0YIDLiOSKWkIsXVhmUNC5z8Pc/Qqg7Pyjtb3Gr9RLcuiQiM/4i3n0oXvys/ZF2j4y5ZBhe+AvxUzQoPn+Utp+Xb+CFXTqtLo5HRD5YsNfv8/PAvy+ZUocawntzOWt6c0XanfWsNSI6bee0cgjziJcvo6FR3b+PR0RQnFWcAYHNkUzuqptkXZxfqcQSpSO6ub3MG/cHlJd/U6PSEPeLm4w1EGhUZXxHR8epWH0twvVJYRjXiBvHLzF2F61XMlytaKQKlpNel489RkukCl/w89H4T4nLF8TVEFiEFlL97PEqz7/kcnehTh8/nCiRKjj9J0uKlhjEpRbPDeEc/Xj+8ZFlhTn4JLnbLpSXaPeIOFkiYwI5wBDoLjlL5NOP+i+lh91IG/EDNuuOG+zjAjLUV4SAnN4q0Guk4WchMqiZ4wjC3qzTh6EpiJSNmcW58ZwKvFvcJE3nyJ3gTP1EtCGe7M5RvSYrddkQHFPGTxwRSvDviBBkj4NUb4u0uwZJmQj4J7EWWWY7BeR5cvWU8loaJ/VcFHHbxBPxWv1au6Wlu6V+9atksZi0Dyng+qWI0xYrXyXyzmgP0f86COR4H0Gr2/R/H8OA1W7TwlHuG70Uf9wzqFirzbq3KPFfJ66ekiusLhtfcLX9hrpWHzGwSrtriEWdcU/LaYvAG9H4WeT/aVKJfrR1dnZOa3SnGXMg2FQ0+edYnHFvoN0ajDk/+r7c2Z1/TBIBcw6VbFisy5oTcobgYo9LuXxMuqV8TijjJX643jr3dZ3e3CjOmjWDrPQ9XOwhiLwGsR6e/0Kgr8e92nXaJwf4+ilt1p4tVSftNO3+P8YOLS3/Blt97ASPF0zhAAAAAElFTkSuQmCC;rotation=0;" vertex="1" parent="1">
          <mxGeometry x="490" y="-289" width="50" height="44" as="geometry" />
        </mxCell>
      </root>
    </mxGraphModel>
  </diagram>
</mxfile>
